<?xml version="1.0" encoding="utf-8"?>
<!-- Generator: Adobe Illustrator 22.0.0, SVG Export Plug-In . SVG Version: 6.00 Build 0)  -->
<svg version="1.1" id="Capa_1" xmlns="http://www.w3.org/2000/svg" xmlns:xlink="http://www.w3.org/1999/xlink" x="0px" y="0px"
	 viewBox="0 0 1000 800" style="enable-background:new 0 0 1000 800;" xml:space="preserve">
<style type="text/css">
	.st0{clip-path:url(#SVGID_2_);}
	.st1{clip-path:url(#SVGID_4_);fill:#5995CD;}
	.st2{opacity:0.2;clip-path:url(#SVGID_6_);}
	.st3{clip-path:url(#SVGID_8_);fill:#FFFFFF;}
	.st4{clip-path:url(#SVGID_10_);fill:#FFFFFF;}
	.st5{clip-path:url(#SVGID_12_);fill:#F0F0F0;}
	.st6{clip-path:url(#SVGID_14_);fill:url(#SVGID_15_);}
	.st7{clip-path:url(#SVGID_17_);fill:#FBBA54;}
	.st8{clip-path:url(#SVGID_19_);fill:url(#SVGID_20_);}
	.st9{clip-path:url(#SVGID_22_);fill:#FBBA54;}
	.st10{clip-path:url(#SVGID_22_);fill:#74B9FF;}
	.st11{clip-path:url(#SVGID_22_);fill:#1D164D;}
	.st12{clip-path:url(#SVGID_22_);fill:#503544;}
	.st13{clip-path:url(#SVGID_24_);fill:url(#SVGID_25_);}
	.st14{clip-path:url(#SVGID_27_);fill:#FF5A5A;}
	.st15{clip-path:url(#SVGID_27_);fill:#1D164D;}
	.st16{clip-path:url(#SVGID_27_);fill:#151C58;}
	.st17{clip-path:url(#SVGID_27_);fill-rule:evenodd;clip-rule:evenodd;fill:#7C4030;}
	.st18{clip-path:url(#SVGID_27_);fill:none;stroke:#F4AC94;stroke-width:0.5;stroke-linecap:round;stroke-linejoin:round;}
	.st19{clip-path:url(#SVGID_27_);fill-rule:evenodd;clip-rule:evenodd;fill:#D74848;}
	.st20{clip-path:url(#SVGID_27_);fill:#332C58;}
	.st21{opacity:0.7;clip-path:url(#SVGID_27_);enable-background:new    ;}
	.st22{clip-path:url(#SVGID_29_);fill:#FFFFFF;}
	.st23{clip-path:url(#SVGID_27_);fill:#E4F2FB;}
	.st24{clip-path:url(#SVGID_31_);fill:url(#SVGID_32_);}
	.st25{clip-path:url(#SVGID_34_);fill:url(#SVGID_35_);}
	.st26{filter:url(#Adobe_OpacityMaskFilter);}
	.st27{clip-path:url(#SVGID_37_);fill:url(#SVGID_39_);}
	.st28{clip-path:url(#SVGID_37_);mask:url(#SVGID_38_);fill:url(#SVGID_40_);}
	.st29{clip-path:url(#SVGID_42_);fill:url(#SVGID_43_);}
	.st30{filter:url(#Adobe_OpacityMaskFilter_1_);}
	.st31{clip-path:url(#SVGID_45_);}
	.st32{clip-path:url(#SVGID_48_);}
	.st33{enable-background:new    ;}
	.st34{clip-path:url(#SVGID_50_);}
	.st35{clip-path:url(#SVGID_52_);fill:url(#SVGID_53_);}
	.st36{clip-path:url(#SVGID_45_);mask:url(#SVGID_46_);}
	.st37{clip-path:url(#SVGID_55_);}
	.st38{filter:url(#Adobe_OpacityMaskFilter_2_);}
	.st39{clip-path:url(#SVGID_57_);fill:url(#SVGID_58_);}
	.st40{clip-path:url(#SVGID_57_);fill:url(#SVGID_59_);}
	.st41{clip-path:url(#SVGID_45_);fill:#E4F2FB;}
	.st42{clip-path:url(#SVGID_45_);fill:#CDD8DF;}
	.st43{clip-path:url(#SVGID_61_);fill:url(#SVGID_62_);}
	.st44{clip-path:url(#SVGID_64_);fill:url(#SVGID_65_);}
	.st45{filter:url(#Adobe_OpacityMaskFilter_3_);}
	.st46{clip-path:url(#SVGID_67_);fill:url(#SVGID_69_);}
	.st47{clip-path:url(#SVGID_67_);mask:url(#SVGID_68_);fill:url(#SVGID_70_);}
	.st48{clip-path:url(#SVGID_72_);fill:#F0F0F0;}
	.st49{clip-path:url(#SVGID_74_);fill:url(#SVGID_75_);}
	.st50{clip-path:url(#SVGID_77_);fill:#FB5666;}
	.st51{clip-path:url(#SVGID_79_);fill:url(#SVGID_80_);}
	.st52{clip-path:url(#SVGID_82_);fill:#FB5666;}
	.st53{clip-path:url(#SVGID_82_);fill:#C9EAFD;}
	.st54{clip-path:url(#SVGID_82_);fill:#1D164D;}
	.st55{clip-path:url(#SVGID_84_);fill:url(#SVGID_85_);}
	.st56{clip-path:url(#SVGID_87_);fill:#1D164D;}
	.st57{clip-path:url(#SVGID_87_);fill:#151C58;}
	.st58{clip-path:url(#SVGID_87_);fill-rule:evenodd;clip-rule:evenodd;fill:#7C4030;}
	.st59{clip-path:url(#SVGID_87_);fill-rule:evenodd;clip-rule:evenodd;fill:#F4AC94;}
	.st60{clip-path:url(#SVGID_87_);fill-rule:evenodd;clip-rule:evenodd;fill:#D74848;}
	.st61{clip-path:url(#SVGID_87_);fill:#4E3644;}
	.st62{clip-path:url(#SVGID_87_);fill:#332C58;}
	.st63{clip-path:url(#SVGID_87_);fill-rule:evenodd;clip-rule:evenodd;fill:#755CFD;}
	.st64{clip-path:url(#SVGID_87_);fill:#74B9FF;}
	.st65{clip-path:url(#SVGID_87_);fill-rule:evenodd;clip-rule:evenodd;fill:#C2E1FF;}
	.st66{clip-path:url(#SVGID_87_);fill:#FF7878;}
	.st67{clip-path:url(#SVGID_89_);fill:url(#SVGID_90_);}
	.st68{clip-path:url(#SVGID_92_);fill:#74B9FF;}
	.st69{clip-path:url(#SVGID_92_);fill:#4FA4F9;}
	.st70{clip-path:url(#SVGID_92_);fill-rule:evenodd;clip-rule:evenodd;fill:#C2E1FF;}
	.st71{filter:url(#Adobe_OpacityMaskFilter_4_);}
	.st72{clip-path:url(#SVGID_92_);}
	.st73{clip-path:url(#SVGID_95_);}
	.st74{clip-path:url(#SVGID_97_);fill:#74B9FF;}
	.st75{clip-path:url(#SVGID_92_);mask:url(#SVGID_93_);}
	.st76{clip-path:url(#SVGID_99_);fill:#4FA4F9;}
	.st77{clip-path:url(#SVGID_92_);fill:none;stroke:#C2E1FF;stroke-width:0.5;}
	.st78{clip-path:url(#SVGID_92_);fill-rule:evenodd;clip-rule:evenodd;fill:#2C3D48;}
	.st79{clip-path:url(#SVGID_92_);fill:#E4F2FB;}
	.st80{clip-path:url(#SVGID_101_);fill:url(#SVGID_102_);}
	.st81{clip-path:url(#SVGID_104_);fill:#D4ECFE;}
	.st82{clip-path:url(#SVGID_104_);fill:#3C9BFA;}
	.st83{clip-path:url(#SVGID_104_);fill-rule:evenodd;clip-rule:evenodd;fill:#74B9FF;}
	.st84{clip-path:url(#SVGID_104_);fill:#FFDC60;}
	.st85{clip-path:url(#SVGID_104_);fill:#194079;}
	.st86{clip-path:url(#SVGID_104_);fill:#B3DCFF;}
	.st87{clip-path:url(#SVGID_104_);fill:#5995CD;}
	.st88{clip-path:url(#SVGID_104_);fill:#7AFF80;}
	.st89{clip-path:url(#SVGID_104_);fill:#FFE143;}
	.st90{clip-path:url(#SVGID_104_);fill:#FF5656;}
	.st91{opacity:0.5;clip-path:url(#SVGID_104_);enable-background:new    ;}
	.st92{clip-path:url(#SVGID_106_);fill:#4B86BD;}
	.st93{clip-path:url(#SVGID_104_);fill:#CFE9FF;}
	.st94{clip-path:url(#SVGID_108_);fill-rule:evenodd;clip-rule:evenodd;fill:#4B86BD;}
	.st95{clip-path:url(#SVGID_104_);fill:#E9EFFF;}
	.st96{clip-path:url(#SVGID_104_);fill:#CDDEFF;}
	.st97{clip-path:url(#SVGID_104_);fill:#D6E1FF;}
	.st98{clip-path:url(#SVGID_104_);fill:#AFCAFF;}
	.st99{clip-path:url(#SVGID_104_);fill:#74B9FF;}
	.st100{clip-path:url(#SVGID_104_);fill-rule:evenodd;clip-rule:evenodd;fill:#194079;}
</style>
<g>
	<defs>
		<rect id="SVGID_1_" width="1000" height="800"/>
	</defs>
	<clipPath id="SVGID_2_">
		<use xlink:href="#SVGID_1_"  style="overflow:visible;"/>
	</clipPath>
	<g class="st0">
		<defs>
			<rect id="SVGID_3_" width="1000" height="800"/>
		</defs>
		<clipPath id="SVGID_4_">
			<use xlink:href="#SVGID_3_"  style="overflow:visible;"/>
		</clipPath>
		<path class="st1" d="M775.1,58.5c233.1,87.2,187,411.3,154.9,480.8c-88.1,190.8-755.2,145-858.2,0
			C-16.1,415.4,46.5,320,113.7,268.5c128.8-98.7,227.5-16.9,302.6-88.1C469.2,130.5,500-7.6,775.1,58.5"/>
	</g>
	<g class="st0">
		<defs>
			<path id="SVGID_5_" d="M416.3,180.5c-75.2,71.1-173.9-10.6-302.6,88.1C46.5,320-16.1,415.4,71.8,539.3
				c103,145,770.1,190.8,858.2,0c32.1-69.5,78.2-393.6-154.9-480.8C723.7,46.2,680.8,41,644.7,41C487.7,41,459.3,139.8,416.3,180.5"
				/>
		</defs>
		<clipPath id="SVGID_6_">
			<use xlink:href="#SVGID_5_"  style="overflow:visible;"/>
		</clipPath>
		<g class="st2">
			<g>
				<defs>
					<rect id="SVGID_7_" x="-213.3" y="159" width="426" height="426"/>
				</defs>
				<clipPath id="SVGID_8_">
					<use xlink:href="#SVGID_7_"  style="overflow:visible;"/>
				</clipPath>
				<path class="st3" d="M-0.3,585c-56.9,0-110.4-22.2-150.6-62.4c-40.2-40.2-62.4-93.7-62.4-150.6s22.2-110.4,62.4-150.6
					C-110.7,181.1-57.2,159-0.3,159s110.4,22.2,150.6,62.4c40.2,40.2,62.4,93.7,62.4,150.6s-22.2,110.4-62.4,150.6
					C110,562.8,56.5,585-0.3,585 M-0.3,221.4c-83,0-150.6,67.6-150.6,150.6S-83.4,522.6-0.3,522.6c83,0,150.6-67.6,150.6-150.6
					S82.7,221.4-0.3,221.4"/>
			</g>
		</g>
		<g class="st2">
			<g>
				<defs>
					<rect id="SVGID_9_" x="665.8" y="-167.8" width="426" height="426"/>
				</defs>
				<clipPath id="SVGID_10_">
					<use xlink:href="#SVGID_9_"  style="overflow:visible;"/>
				</clipPath>
				<path class="st4" d="M878.8,258.2c-56.9,0-110.4-22.2-150.6-62.4c-40.2-40.2-62.4-93.7-62.4-150.6c0-56.9,22.2-110.4,62.4-150.6
					c40.2-40.2,93.7-62.4,150.6-62.4c56.9,0,110.4,22.2,150.6,62.4c40.2,40.2,62.4,93.7,62.4,150.6c0,56.9-22.2,110.4-62.4,150.6
					C989.2,236,935.7,258.2,878.8,258.2 M878.8-105.4c-83,0-150.6,67.6-150.6,150.6s67.6,150.6,150.6,150.6s150.6-67.6,150.6-150.6
					S961.9-105.4,878.8-105.4"/>
			</g>
		</g>
	</g>
	<g class="st0">
		<defs>
			<rect id="SVGID_11_" width="1000" height="800"/>
		</defs>
		<clipPath id="SVGID_12_">
			<use xlink:href="#SVGID_11_"  style="overflow:visible;"/>
		</clipPath>
		<path class="st5" d="M192.4,750.9c0,7.7-32.6,14-72.8,14c-40.2,0-72.8-6.3-72.8-14s32.6-14,72.8-14
			C159.9,736.9,192.4,743.2,192.4,750.9"/>
	</g>
	<g class="st0">
		<defs>
			<polygon id="SVGID_13_" points="65,726.5 65,741.6 78.6,741.1 78.6,725.4 			"/>
		</defs>
		<clipPath id="SVGID_14_">
			<use xlink:href="#SVGID_13_"  style="overflow:visible;"/>
		</clipPath>
		
			<linearGradient id="SVGID_15_" gradientUnits="userSpaceOnUse" x1="0" y1="800" x2="1" y2="800" gradientTransform="matrix(24.9479 23.0174 -23.0174 24.9479 18478.2852 -19231.6406)">
			<stop  offset="0" style="stop-color:#FFD6C7"/>
			<stop  offset="1" style="stop-color:#FFD0C1"/>
		</linearGradient>
		<polygon class="st6" points="56.9,734.2 72.3,748.4 86.6,732.9 71.2,718.7 		"/>
	</g>
	<g class="st0">
		<defs>
			<rect id="SVGID_16_" width="1000" height="800"/>
		</defs>
		<clipPath id="SVGID_17_">
			<use xlink:href="#SVGID_16_"  style="overflow:visible;"/>
		</clipPath>
		<path class="st7" d="M62.9,750.5c-1.3-0.4-0.5-11,0-16.2c2.1-1.6,3.1,1,5.7,3.7c2.6,2.6,6.3-0.5,7.8-2.1c1.6-1.6,4.7-2.6,6.8,0
			c2.1,2.6,14.1,5.7,19.3,8.4c5.2,2.6,2.6,6.8,0,7.3C100,752,64.5,751,62.9,750.5"/>
	</g>
	<g class="st0">
		<defs>
			<polygon id="SVGID_18_" points="134.9,724.4 137.2,741.6 153.2,741.6 149,722.3 			"/>
		</defs>
		<clipPath id="SVGID_19_">
			<use xlink:href="#SVGID_18_"  style="overflow:visible;"/>
		</clipPath>
		
			<linearGradient id="SVGID_20_" gradientUnits="userSpaceOnUse" x1="0" y1="799.9839" x2="1" y2="799.9839" gradientTransform="matrix(29.8497 31.0598 -31.0598 29.8497 24982.5625 -23156.5957)">
			<stop  offset="0" style="stop-color:#FFD6C7"/>
			<stop  offset="1" style="stop-color:#FFD0C1"/>
		</linearGradient>
		<polygon class="st8" points="125.3,731.6 143.7,750.7 162.9,732.3 144.4,713.2 		"/>
	</g>
	<g class="st0">
		<defs>
			<rect id="SVGID_21_" width="1000" height="800"/>
		</defs>
		<clipPath id="SVGID_22_">
			<use xlink:href="#SVGID_21_"  style="overflow:visible;"/>
		</clipPath>
		<path class="st9" d="M135.1,750.5c-1.3-0.4-0.5-11,0-16.2c2.1-1.6,3.1,1,5.7,3.7c2.6,2.6,6.3-0.5,7.8-2.1c1.6-1.6,4.7-2.6,6.8,0
			c2.1,2.6,14.1,5.7,19.3,8.4c5.2,2.6,2.6,6.8,0,7.3C172.2,752,136.7,751,135.1,750.5"/>
		<path class="st10" d="M51.4,549c-2.5-16.7,3.8-34.8,7.3-41.8l3.1-8.4h59c10.4,75.9,31,227.9,29.8,229.2c-1.6,1.6-14.1,0.5-16.2,0
			c-1.7-0.4-26.4-108.8-38.6-162.9c-5.4,53.2-16.2,160.1-16.2,161.3c0,1.6-14.1,3.7-15.1,0c-1-3.7-2.6-44.4-2.6-94
			C61.9,582.9,54.5,569.9,51.4,549"/>
		<polygon class="st11" points="101,529.1 95.8,565.2 104.7,604.3 		"/>
		<path class="st12" d="M32.6,417.9c-7.9,15.5,1.6,27,7.3,30.8c28.7-11.7,84.8-37,79.3-44.9c-6.8-9.9-7.3-26.1-7.3-31.8
			c0-5.7,3.1-19.3-6.3-26.6c-11.3-8.8-23,1.2-27.7,6.8c0-1.6-7.8-3.1-7.8,2.6c0,5.7-9.4,29.2-17.2,43.3
			C45.2,412.2,35.8,411.7,32.6,417.9"/>
	</g>
	<g class="st0">
		<defs>
			<path id="SVGID_23_" d="M95.8,363.1c-5.2-1.6-8.4-3.1-8.4-3.1c-0.5,2.3-0.8,7.1-2.1,8.4c-1.3,1.3-1.6,3.3-1.6,4.2
				c-1.4-2.6-4.3-5.3-6.8-3.7c-3.1,2.1-1,4.7,0,5.7c1.7,1.7,3.1,2.8,3.7,3.1l1,18.3l14.1,11.5l4.7-7.3v-10.4c0,0,5.6,1.6,6.3-6.8
				c0.5-5.8,0.5-17.1,0.5-23C105.5,361.6,100,364.4,95.8,363.1"/>
		</defs>
		<clipPath id="SVGID_24_">
			<use xlink:href="#SVGID_23_"  style="overflow:visible;"/>
		</clipPath>
		
			<linearGradient id="SVGID_25_" gradientUnits="userSpaceOnUse" x1="0" y1="800.0746" x2="1" y2="800.0746" gradientTransform="matrix(70.8678 54.0845 -54.0845 70.8678 43341.2695 -56331.7656)">
			<stop  offset="0" style="stop-color:#FFD6C7"/>
			<stop  offset="1" style="stop-color:#FFD0C1"/>
		</linearGradient>
		<polygon class="st13" points="51,390 95,423.6 130.2,377.5 86.2,343.9 		"/>
	</g>
	<g class="st0">
		<defs>
			<rect id="SVGID_26_" width="1000" height="800"/>
		</defs>
		<clipPath id="SVGID_27_">
			<use xlink:href="#SVGID_26_"  style="overflow:visible;"/>
		</clipPath>
		<path class="st14" d="M79.1,375.7c0.6,0,1,0.5,1,1s-0.5,1-1,1c-0.6,0-1-0.5-1-1S78.5,375.7,79.1,375.7"/>
		<path class="st15" d="M89,385.1c3.8,2.9,9.2,4.4,11.5,4.7v3.1C93,391.2,89.7,387,89,385.1"/>
		<path class="st16" d="M103.6,370c-0.4,0-0.8,0.9-0.8,1.9c0,1.1,0.3,1.9,0.8,1.9c0.4,0,0.8-0.9,0.8-1.9
			C104.3,370.9,104,370,103.6,370"/>
		<path class="st16" d="M94.3,369.9c-0.4,0-0.8,0.9-0.8,1.9c0,1.1,0.3,1.9,0.8,1.9c0.4,0,0.8-0.9,0.8-1.9
			C95.1,370.8,94.7,369.9,94.3,369.9"/>
		<path class="st17" d="M103.9,367c0.6,0.1,1.1,0.6,1.4,0.9c0.1,0.1,0.2,0.1,0.3,0c0.1-0.1,0.1-0.2,0-0.3c-0.3-0.4-1-0.9-1.7-1.1
			c-0.8-0.2-1.7,0.1-2.5,1c-0.1,0.1-0.1,0.3,0,0.3c0.1,0.1,0.3,0.1,0.3,0C102.6,367,103.3,366.8,103.9,367"/>
		<path class="st17" d="M94.2,367.1c0.6,0.1,1.2,0.6,1.4,0.9c0.1,0.1,0.2,0.1,0.3,0c0.1-0.1,0.1-0.2,0-0.3c-0.3-0.4-1-0.9-1.7-1.1
			c-0.8-0.2-1.7,0.1-2.5,1c-0.1,0.1-0.1,0.3,0,0.3c0.1,0.1,0.3,0.1,0.3,0C92.9,367.1,93.7,367,94.2,367.1"/>
		<path class="st18" d="M99.5,371.3c0.3,1.3,0.9,4.1,2.3,5.9c1,1.4-2.3,1.4-2.9,0.6"/>
		<path class="st19" d="M94.8,380.2c-0.1,0.1-0.2,0.2-0.1,0.3c0.5,1,1.2,1.5,1.9,1.7c0.7,0.2,1.4,0.1,1.8,0c0.1,0,0.2-0.2,0.2-0.3
			c0-0.1-0.2-0.2-0.3-0.2c-0.3,0.1-0.9,0.2-1.5,0c-0.6-0.2-1.2-0.6-1.6-1.5C95.1,380.1,95,380.1,94.8,380.2"/>
		<path class="st20" d="M84.8,502.5l-3.1-108.6l10.4,9.4h5.7l2.6-8.4c6.8,34.8,20.3,105,15.7,107.5C111.6,505,93.4,503.6,84.8,502.5
			"/>
		<g class="st21">
			<g>
				<defs>
					<rect id="SVGID_28_" x="82.8" y="425.8" width="25.2" height="5.1"/>
				</defs>
				<clipPath id="SVGID_29_">
					<use xlink:href="#SVGID_28_"  style="overflow:visible;"/>
				</clipPath>
				<path class="st22" d="M83.7,430.9l-1-3c5.3-1.7,17.3-3.9,25.2,0.1l-1.4,2.8C99.6,427.3,88.6,429.4,83.7,430.9"/>
			</g>
		</g>
		<path class="st23" d="M95.3,402.3c-0.4,0-8.5-5.4-13.6-8.4l9.4,15.7l4.2-5.2l5.2,3.7v-13C98.9,397.6,95.7,402.3,95.3,402.3"/>
	</g>
	<g class="st0">
		<defs>
			<path id="SVGID_30_" d="M195.5,424.2c-3.3,1.3-10.4,11-9.9,5.7c0.5-5.2-4.2-6.3-3.7-4.2c0.5,2.1-2.1,6.3-3.1,7.3
				c-1,1-1,3.1-1.6,3.7c-0.4,0.4-6.8,1.6-9.9,2.1l0.5,5.2l5.2,3.7c4-1.4,12.5-4.3,14.6-4.7c2.6-0.5,7.8-5.7,10.4-8.4
				c2.5-2.5,0.3-10.5-2.2-10.5C195.8,424.1,195.6,424.2,195.5,424.2"/>
		</defs>
		<clipPath id="SVGID_31_">
			<use xlink:href="#SVGID_30_"  style="overflow:visible;"/>
		</clipPath>
		
			<linearGradient id="SVGID_32_" gradientUnits="userSpaceOnUse" x1="0" y1="799.9924" x2="1" y2="799.9924" gradientTransform="matrix(33.766 50.2267 -50.2267 33.766 40354.75 -26591.9746)">
			<stop  offset="0" style="stop-color:#FFD6C7"/>
			<stop  offset="1" style="stop-color:#FFD0C1"/>
		</linearGradient>
		<polygon class="st24" points="156.2,431.2 177.7,463.1 211.7,440.2 190.2,408.3 		"/>
	</g>
	<g class="st0">
		<defs>
			<path id="SVGID_33_" d="M113,513.5c-0.5,6.8,18.8-1.6,21.9-2.6c3.1-1-7.8-1.6-11-23c-3.1-21.4-3.7-31.8-2.6-39.2
				c2.8,4.2,8.9,12.6,11,13.1c2.6,0.5,40.7-13.6,41.8-14.1c1-0.5-7.3-2.1-4.7-9.4l-31.3,3.7c-4.2-11.7-10.4-29.8-15.7-38.1
				c-2.9-4.7-17.7-7.8-21.9-8.9C104.5,432,113.4,508,113,513.5"/>
		</defs>
		<clipPath id="SVGID_34_">
			<use xlink:href="#SVGID_33_"  style="overflow:visible;"/>
		</clipPath>
		
			<linearGradient id="SVGID_35_" gradientUnits="userSpaceOnUse" x1="0" y1="800.0079" x2="1" y2="800.0079" gradientTransform="matrix(9.3966 179.0567 -179.0567 9.3966 143378.2188 -7180.6826)">
			<stop  offset="0" style="stop-color:#FFCC7E"/>
			<stop  offset="1" style="stop-color:#FF9D43"/>
		</linearGradient>
		<polygon class="st25" points="93.9,395.3 100.7,524.2 181.7,519.9 174.9,391.1 		"/>
	</g>
	<g class="st0">
		<defs>
			<path id="SVGID_36_" d="M121.4,448.7c3.3,4.9,9.4,13.6,11.5,13.1c1.8-0.5,1.6-3.7,0-4.7c-1.6-1-5.2-1.6-3.1-8.9
				c1.6-5.5-6.3-21.1-11.2-28.5C123.1,427.4,122.4,442.8,121.4,448.7 M118.5,419.7c-0.3-0.4-0.5-0.8-0.8-1.2
				C118,418.9,118.3,419.3,118.5,419.7"/>
		</defs>
		<clipPath id="SVGID_37_">
			<use xlink:href="#SVGID_36_"  style="overflow:visible;"/>
		</clipPath>
		<defs>
			<filter id="Adobe_OpacityMaskFilter" filterUnits="userSpaceOnUse" x="115.2" y="417.5" width="22" height="45.8">
				<feColorMatrix  type="matrix" values="1 0 0 0 0  0 1 0 0 0  0 0 1 0 0  0 0 0 1 0"/>
			</filter>
		</defs>
		<mask maskUnits="userSpaceOnUse" x="115.2" y="417.5" width="22" height="45.8" id="SVGID_38_">
			<g class="st26">
				
					<linearGradient id="SVGID_39_" gradientUnits="userSpaceOnUse" x1="0" y1="800.0052" x2="1" y2="800.0052" gradientTransform="matrix(36.3333 2.0829 -2.0829 36.3333 1769.7418 -28627.7773)">
					<stop  offset="0" style="stop-color:#FFFFFF"/>
					<stop  offset="1" style="stop-color:#000000"/>
				</linearGradient>
				<polygon class="st27" points="115.2,462.2 134.6,463.3 137.2,418.6 117.8,417.5 				"/>
			</g>
		</mask>
		
			<linearGradient id="SVGID_40_" gradientUnits="userSpaceOnUse" x1="0" y1="800.0052" x2="1" y2="800.0052" gradientTransform="matrix(36.3333 2.0829 -2.0829 36.3333 1769.7419 -28627.7793)">
			<stop  offset="0" style="stop-color:#FF8616"/>
			<stop  offset="1" style="stop-color:#FF8616"/>
		</linearGradient>
		<polygon class="st28" points="115.2,462.2 134.6,463.3 137.2,418.6 117.8,417.5 		"/>
	</g>
	<g class="st0">
		<defs>
			<path id="SVGID_41_" d="M52.3,482.2c0.2,7.5-0.4,23.9-4.2,29.8c-4.7,7.3,35.5,3.7,37.1,2.6c1.6-1,1-27.7,1-29.2
				c0-1.3-9.4-4.7-14.1-6.3L52.3,482.2z"/>
		</defs>
		<clipPath id="SVGID_42_">
			<use xlink:href="#SVGID_41_"  style="overflow:visible;"/>
		</clipPath>
		
			<linearGradient id="SVGID_43_" gradientUnits="userSpaceOnUse" x1="0" y1="800.0251" x2="1" y2="800.0251" gradientTransform="matrix(-12.5883 121.4265 -121.4265 -12.5883 97221.6875 10451.1025)">
			<stop  offset="0" style="stop-color:#FFCC7E"/>
			<stop  offset="1" style="stop-color:#FF9D43"/>
		</linearGradient>
		<polygon class="st29" points="43.9,474.6 39.3,518.8 86.3,523.7 90.9,479.5 		"/>
	</g>
	<g class="st0">
		<defs>
			<rect id="SVGID_44_" width="1000" height="800"/>
		</defs>
		<clipPath id="SVGID_45_">
			<use xlink:href="#SVGID_44_"  style="overflow:visible;"/>
		</clipPath>
		<defs>
			<filter id="Adobe_OpacityMaskFilter_1_" filterUnits="userSpaceOnUse" x="45.3" y="481.5" width="19.1" height="36.8">
				<feColorMatrix  type="matrix" values="1 0 0 0 0  0 1 0 0 0  0 0 1 0 0  0 0 0 1 0"/>
			</filter>
		</defs>
		<mask maskUnits="userSpaceOnUse" x="45.3" y="481.5" width="19.1" height="36.8" id="SVGID_46_">
			<g class="st30">
				<g>
					<defs>
						<rect id="SVGID_47_" x="47.2" y="482.2" width="13.2" height="34.8"/>
					</defs>
					<clipPath id="SVGID_48_" class="st31">
						<use xlink:href="#SVGID_47_"  style="overflow:visible;"/>
					</clipPath>
					<rect x="46.8" y="482.2" class="st32" width="16.1" height="35.5"/>
					<g class="st33">
						<g>
							<defs>
								<rect id="SVGID_49_" x="46.8" y="482.2" width="16.1" height="35.5"/>
							</defs>
							<clipPath id="SVGID_50_" class="st32">
								<use xlink:href="#SVGID_49_"  style="overflow:visible;"/>
							</clipPath>
							<g>
								<defs>
									<path id="SVGID_51_" d="M48.1,511.9c3.8-5.8,4.3-22.3,4.2-29.8l19.8-3.1c4.7,1.6,14.1,5,14.1,6.3c0,1.6,0.5,28.2-1,29.2
										S43.4,519.2,48.1,511.9"/>
								</defs>
								<clipPath id="SVGID_52_" class="st34">
									<use xlink:href="#SVGID_51_"  style="overflow:visible;"/>
								</clipPath>
								
									<linearGradient id="SVGID_53_" gradientUnits="userSpaceOnUse" x1="0" y1="800.0251" x2="1" y2="800.0251" gradientTransform="matrix(-12.5883 121.4265 -121.4265 -12.5883 97221.6875 10451.1025)">
									<stop  offset="0" style="stop-color:#FFCC7E"/>
									<stop  offset="1" style="stop-color:#FF9D43"/>
								</linearGradient>
								<polygon class="st35" points="43.9,474.6 39.3,518.8 86.3,523.7 90.9,479.5 								"/>
							</g>
						</g>
					</g>
				</g>
			</g>
		</mask>
		<g class="st36">
			<g>
				<defs>
					<rect id="SVGID_54_" x="47.2" y="482.2" width="13.2" height="34.8"/>
				</defs>
				<clipPath id="SVGID_55_">
					<use xlink:href="#SVGID_54_"  style="overflow:visible;"/>
				</clipPath>
				<g class="st37">
					<defs>
						<path id="SVGID_56_" d="M55.6,483.7h1l-0.5-1.6l-4.7,0.5c-1.6,9.7-4.6,29.7-4.2,31.3c0.5,2.1,8.9,3.7,10.4,2.6
							c1.6-1,5.2-3.1,0-8.9c-5.2-5.7,1-5.7,1.6-12.5C59.8,488.4,54,483.7,55.6,483.7"/>
					</defs>
					<clipPath id="SVGID_57_">
						<use xlink:href="#SVGID_56_"  style="overflow:visible;"/>
					</clipPath>
					<defs>
						<filter id="Adobe_OpacityMaskFilter_2_" filterUnits="userSpaceOnUse" x="45.3" y="481.5" width="19.1" height="36.8">
							<feColorMatrix  type="matrix" values="1 0 0 0 0  0 1 0 0 0  0 0 1 0 0  0 0 0 1 0"/>
						</filter>
					</defs>
					<mask maskUnits="userSpaceOnUse" x="45.3" y="481.5" width="19.1" height="36.8" id="SVGID_46_">
						<g class="st38">
							
								<linearGradient id="SVGID_58_" gradientUnits="userSpaceOnUse" x1="0" y1="800.0123" x2="1" y2="800.0123" gradientTransform="matrix(24.6232 -1.0357 1.0357 24.6232 -782.158 -19198.584)">
								<stop  offset="0" style="stop-color:#FFFFFF"/>
								<stop  offset="1" style="stop-color:#000000"/>
							</linearGradient>
							<polygon class="st39" points="46.9,518.3 64.4,517.6 62.9,481.5 45.3,482.2 							"/>
						</g>
					</mask>
					
						<linearGradient id="SVGID_59_" gradientUnits="userSpaceOnUse" x1="0" y1="800.0123" x2="1" y2="800.0123" gradientTransform="matrix(24.6232 -1.0357 1.0357 24.6232 -782.158 -19198.584)">
						<stop  offset="0" style="stop-color:#FF8616"/>
						<stop  offset="1" style="stop-color:#FF8616"/>
					</linearGradient>
					<polygon class="st40" points="46.9,518.3 64.4,517.6 62.9,481.5 45.3,482.2 					"/>
				</g>
			</g>
		</g>
		<polygon class="st41" points="77.5,437.8 55.1,484.8 84.3,495.2 108.8,448.2 		"/>
		<path class="st42" d="M79.6,482.7c-9.5,1.2-17.7,1.2-24,1l1-2.1l37.6-5.2l-2.6,4.7C89,481.6,84.1,482.1,79.6,482.7"/>
	</g>
	<g class="st0">
		<defs>
			<path id="SVGID_60_" d="M100,464.9c-0.5,1.6-2.6,4.7-4.7,5.2c-1.7,0.4-14.8-0.5-20.9-1.6l-2.1,1.6v11c7.1-0.7,22.7-2.5,27.7-4.2
				c5.9-2,1.2-12.2,0.2-12.2C100.1,464.8,100,464.8,100,464.9"/>
		</defs>
		<clipPath id="SVGID_61_">
			<use xlink:href="#SVGID_60_"  style="overflow:visible;"/>
		</clipPath>
		
			<linearGradient id="SVGID_62_" gradientUnits="userSpaceOnUse" x1="0" y1="799.948" x2="1" y2="799.948" gradientTransform="matrix(19.8466 40.8729 -40.8729 19.8466 32779.0898 -15416.0225)">
			<stop  offset="0" style="stop-color:#FFD6C7"/>
			<stop  offset="1" style="stop-color:#FFD0C1"/>
		</linearGradient>
		<polygon class="st43" points="65.9,467.9 78.7,494.3 112.2,478 99.4,451.6 		"/>
	</g>
	<g class="st0">
		<defs>
			<path id="SVGID_63_" d="M53,409.6c-4.2,8.9-18.8,51.2-19.3,59c-0.5,7.8,1,14.6,17.2,14.1c16.2-0.5,22.4-0.5,23-2.1
				c0.5-1.6-1-11,1-12l-11-2.6c0,0,0.5-0.5,13.6-28.2l7.8,2.6l0-0.3c-0.5-14.2-1.6-42.4-3.6-46.1C73.9,396.2,56.3,402.5,53,409.6"/>
		</defs>
		<clipPath id="SVGID_64_">
			<use xlink:href="#SVGID_63_"  style="overflow:visible;"/>
		</clipPath>
		
			<linearGradient id="SVGID_65_" gradientUnits="userSpaceOnUse" x1="0" y1="799.9935" x2="1" y2="799.9935" gradientTransform="matrix(9.9656 105.8627 -105.8627 9.9656 84743.7344 -7586.7354)">
			<stop  offset="0" style="stop-color:#FFCC7E"/>
			<stop  offset="1" style="stop-color:#FF9D43"/>
		</linearGradient>
		<polygon class="st44" points="24.8,394.7 33.6,488.1 93.7,482.4 84.9,389.1 		"/>
	</g>
	<g class="st0">
		<defs>
			<path id="SVGID_66_" d="M54,464.4l9.9,1.6c-1.2-0.7-4.7-2.4-4.7-3.7c0-1.3,4-23.7,5.7-32.9L54,464.4z"/>
		</defs>
		<clipPath id="SVGID_67_">
			<use xlink:href="#SVGID_66_"  style="overflow:visible;"/>
		</clipPath>
		<defs>
			<filter id="Adobe_OpacityMaskFilter_3_" filterUnits="userSpaceOnUse" x="47.4" y="427.5" width="24.1" height="40.5">
				<feColorMatrix  type="matrix" values="1 0 0 0 0  0 1 0 0 0  0 0 1 0 0  0 0 0 1 0"/>
			</filter>
		</defs>
		<mask maskUnits="userSpaceOnUse" x="47.4" y="427.5" width="24.1" height="40.5" id="SVGID_68_">
			<g class="st45">
				
					<linearGradient id="SVGID_69_" gradientUnits="userSpaceOnUse" x1="0" y1="800.0245" x2="1" y2="800.0245" gradientTransform="matrix(30.7998 5.7423 -5.7423 30.7998 4636.1768 -24196.1504)">
					<stop  offset="0" style="stop-color:#FFFFFF"/>
					<stop  offset="1" style="stop-color:#000000"/>
				</linearGradient>
				<polygon class="st46" points="47.4,464.7 64.6,468 71.6,430.7 54.4,427.5 				"/>
			</g>
		</mask>
		
			<linearGradient id="SVGID_70_" gradientUnits="userSpaceOnUse" x1="0" y1="800.0245" x2="1" y2="800.0245" gradientTransform="matrix(30.7998 5.7423 -5.7423 30.7998 4636.1768 -24196.1504)">
			<stop  offset="0" style="stop-color:#FF8616"/>
			<stop  offset="1" style="stop-color:#FF8616"/>
		</linearGradient>
		<polygon class="st47" points="47.4,464.7 64.6,468 71.6,430.7 54.4,427.5 		"/>
	</g>
	<g class="st0">
		<defs>
			<rect id="SVGID_71_" width="1000" height="800"/>
		</defs>
		<clipPath id="SVGID_72_">
			<use xlink:href="#SVGID_71_"  style="overflow:visible;"/>
		</clipPath>
		<path class="st48" d="M914.9,749.9c0,7.7-32.6,14-72.8,14c-40.2,0-72.8-6.3-72.8-14s32.6-14,72.8-14
			C882.3,735.9,914.9,742.1,914.9,749.9"/>
	</g>
	<g class="st0">
		<defs>
			<polygon id="SVGID_73_" points="822.5,730.1 823,742.1 835,741.6 836.6,733.8 836.6,729.6 			"/>
		</defs>
		<clipPath id="SVGID_74_">
			<use xlink:href="#SVGID_73_"  style="overflow:visible;"/>
		</clipPath>
		
			<linearGradient id="SVGID_75_" gradientUnits="userSpaceOnUse" x1="0" y1="800.0067" x2="1" y2="800.0067" gradientTransform="matrix(18.9393 23.4727 -23.4727 18.9393 19602.3262 -14422.4727)">
			<stop  offset="0" style="stop-color:#FFD6C7"/>
			<stop  offset="1" style="stop-color:#FFC0AC"/>
		</linearGradient>
		<polygon class="st49" points="816.3,734.5 828,749 842.7,737.2 831,722.7 		"/>
	</g>
	<g class="st0">
		<defs>
			<rect id="SVGID_76_" width="1000" height="800"/>
		</defs>
		<clipPath id="SVGID_77_">
			<use xlink:href="#SVGID_76_"  style="overflow:visible;"/>
		</clipPath>
		<path class="st50" d="M797.9,742.1c10.4-2.1,19-8.2,21.9-11h3.1c0,6.8,4.8,8,8.4,7.3c3.6-0.7,5.2-8.9,5.7-7.3
			c0.5,1.6,1,19.8-2.1,19.8c-3.1,0-46.5,1-46.5,0S784.9,744.7,797.9,742.1"/>
	</g>
	<g class="st0">
		<defs>
			<polygon id="SVGID_78_" points="877.7,730.1 878.3,742.1 890.3,741.6 891.8,733.8 891.8,729.6 			"/>
		</defs>
		<clipPath id="SVGID_79_">
			<use xlink:href="#SVGID_78_"  style="overflow:visible;"/>
		</clipPath>
		
			<linearGradient id="SVGID_80_" gradientUnits="userSpaceOnUse" x1="0" y1="800.0067" x2="1" y2="800.0067" gradientTransform="matrix(18.9393 23.4727 -23.4727 18.9393 19657.6094 -14422.4727)">
			<stop  offset="0" style="stop-color:#FFD6C7"/>
			<stop  offset="1" style="stop-color:#FFC0AC"/>
		</linearGradient>
		<polygon class="st51" points="871.6,734.5 883.3,749 898,737.2 886.3,722.7 		"/>
	</g>
	<g class="st0">
		<defs>
			<rect id="SVGID_81_" width="1000" height="800"/>
		</defs>
		<clipPath id="SVGID_82_">
			<use xlink:href="#SVGID_81_"  style="overflow:visible;"/>
		</clipPath>
		<path class="st52" d="M853.2,742.1c10.4-2.1,19-8.2,21.9-11h3.1c0,6.8,4.8,8,8.4,7.3c3.6-0.7,5.2-8.9,5.7-7.3
			c0.5,1.6,1,19.8-2.1,19.8s-46.5,1-46.5,0S840.2,744.7,853.2,742.1"/>
		<path class="st53" d="M818.3,730.1c-0.4-2.1-0.2-150.5,0-224.5l74.1-5.2c0.3,76.6,0.8,230.1,0,231.8c-1,2.1-16.2,0-17.7-1
			c-1.6-1-6.3-71-6.8-77.8c-0.5-6.8-12.5-86.1-13.1-82.5c-0.5,3.7-16.2,155.6-16.7,159.2C837.6,733.8,818.8,732.7,818.3,730.1"/>
		<polygon class="st54" points="850.1,528.6 854.8,571.4 849.6,618.9 		"/>
	</g>
	<g class="st0">
		<defs>
			<path id="SVGID_83_" d="M838.1,373.1c-0.5,4.2-1,12.5,7.8,14.1l-1.6,15.1l7.8,6.3l13.1-9.4l4.2-21.9l5.7-1l3.7-7.3l-3.7-4.2
				l-6.8,2.6l3.7-11l-28.2-7.8C842.1,355.3,838.5,369.7,838.1,373.1"/>
		</defs>
		<clipPath id="SVGID_84_">
			<use xlink:href="#SVGID_83_"  style="overflow:visible;"/>
		</clipPath>
		
			<linearGradient id="SVGID_85_" gradientUnits="userSpaceOnUse" x1="0" y1="799.9944" x2="1" y2="799.9944" gradientTransform="matrix(89.1525 66.9223 -66.9223 89.1525 54369.9727 -70962.0469)">
			<stop  offset="0" style="stop-color:#FFD6C7"/>
			<stop  offset="1" style="stop-color:#FFC0AC"/>
		</linearGradient>
		<polygon class="st55" points="808.2,386.9 863.8,428.6 907.7,370.2 852.1,328.5 		"/>
	</g>
	<g class="st0">
		<defs>
			<rect id="SVGID_86_" width="1000" height="800"/>
		</defs>
		<clipPath id="SVGID_87_">
			<use xlink:href="#SVGID_86_"  style="overflow:visible;"/>
		</clipPath>
		<path class="st56" d="M861.1,383.5c-7.3,4.2-12.5,3.7-15.1,3.7l-0.5,5.7C851.3,393.3,858.7,386.6,861.1,383.5"/>
		<path class="st57" d="M845.6,360.7c0.5,0.1,0.6,1.3,0.3,2.5c-0.4,1.3-1,2.2-1.5,2s-0.6-1.3-0.3-2.5
			C844.4,361.4,845.1,360.5,845.6,360.7"/>
		<path class="st57" d="M856.5,363.8c0.5,0.1,0.6,1.3,0.3,2.5c-0.4,1.3-1,2.2-1.5,2c-0.5-0.1-0.6-1.3-0.3-2.5
			C855.3,364.5,856,363.6,856.5,363.8"/>
		<path class="st58" d="M846.3,357c-0.8-0.1-1.5,0.3-2,0.6c-0.1,0.1-0.3,0.1-0.4-0.1c-0.1-0.1-0.1-0.3,0.1-0.4
			c0.5-0.4,1.5-0.8,2.4-0.7c1,0.1,1.9,0.7,2.6,2.1c0.1,0.1,0,0.3-0.1,0.4c-0.1,0.1-0.3,0-0.4-0.1C847.8,357.5,847,357,846.3,357"/>
		<path class="st58" d="M857.5,360.5c-0.8-0.1-1.5,0.3-2,0.6c-0.1,0.1-0.3,0.1-0.4-0.1c-0.1-0.1-0.1-0.3,0.1-0.4
			c0.5-0.4,1.5-0.8,2.4-0.7c1,0.1,1.9,0.7,2.6,2.1c0.1,0.1,0,0.3-0.1,0.4c-0.1,0.1-0.3,0-0.4-0.1C859.1,361,858.3,360.5,857.5,360.5
			"/>
		<path class="st59" d="M850.1,363.3c0.1,0.1,0.2,0.2,0.1,0.4c-0.8,1.4-2.5,4.6-4.8,6.2c-0.2,0.1-0.3,0.3-0.3,0.3c0,0.1,0,0.1,0,0.2
			c0.1,0.2,0.4,0.4,0.8,0.6c0.4,0.2,0.9,0.3,1.4,0.3c0.2,0,0.4,0,0.6,0c0.2,0,0.3-0.1,0.4-0.1c0.1-0.1,0.3-0.1,0.4,0.1
			c0.1,0.1,0.1,0.3-0.1,0.4c-0.2,0.1-0.4,0.2-0.6,0.2c-0.2,0-0.5,0-0.7,0c-0.5,0-1.1-0.2-1.5-0.4c-0.4-0.2-0.9-0.5-1.1-0.8
			c-0.1-0.2-0.1-0.4-0.1-0.6c0.1-0.2,0.3-0.4,0.5-0.6c2.2-1.6,3.8-4.6,4.6-6.1C849.8,363.3,850,363.2,850.1,363.3"/>
		<path class="st60" d="M852.3,375.5c0.1,0.1,0.1,0.3,0,0.4c-0.9,1-1.9,1.3-2.9,1.3c-0.9,0-1.7-0.3-2.1-0.6
			c-0.1-0.1-0.2-0.3-0.1-0.4c0.1-0.1,0.3-0.2,0.4-0.1c0.4,0.3,1,0.5,1.8,0.5c0.8,0,1.6-0.3,2.4-1.1
			C852,375.4,852.2,375.4,852.3,375.5"/>
		<path class="st61" d="M844.4,350.1c-4.6-5.8-3-16.4-1.6-20.9c1.6-2.6,4.2-2.1,5.7-1c1.6,1,14.1,11.5,13.6,10.4
			c-0.5-1,1-5.2,2.1-3.1c1,2.1,9.9,12,11,11s-1.6-5.2,5.2-0.5c5.4,3.8,3,11.3,1,14.6c7.8,1.6,5.2,7.3,0.5,12.5
			c-4.3,4.8-9.9,7-13.6,9.4l1-5.7c1.6,0.5,7.8-2.6,6.8-7.3c-0.8-3.8-5.9-1.2-8.4,0.5c-0.8-3.8,1.4-9.9,2.6-12.5
			c-6.3,1.6-13.6-5.2-14.6-5.2c-1,0,1.6,2.6,1.6,3.7C857.4,356.9,850.1,357.4,844.4,350.1"/>
		<path class="st62" d="M851.7,402.8c-4.6-0.4-6.4-4-6.8-5.7c-5.7,35-16.6,105.7-14.1,108.6c2.5,2.9,23,1.2,32.9,0l2.1-109.1
			C863.7,399.7,857.4,403.3,851.7,402.8"/>
		<path class="st63" d="M850.9,408.3c-4-0.3-6.6-3-7.8-5.4l0.5-0.2c1.1,2.3,3.6,4.8,7.4,5.1c3.8,0.3,9-1.8,15.7-8.8l0.4,0.4
			C860.3,406.5,854.9,408.6,850.9,408.3"/>
		<path class="st64" d="M813.1,411.2c2.1-5.4,22.1-11.7,31.8-14.1c-1.6,10.8-4.8,33.4-5.2,37.6c-0.4,4.2-4.4,57.1-6.3,83
			c-3.1,0.5-17.2-1.6-17.2-4.2V501L800,460.8C803.5,446.5,811,416.6,813.1,411.2"/>
		<path class="st65" d="M829.5,517.7c1.3-50.6,8.9-101,12.5-119.6l0.5,0.1c-3.7,18.6-11.3,69-12.5,119.5L829.5,517.7z"/>
		<path class="st64" d="M862.1,517.7c-1.7-1.7-1.7-24.7-1.6-36l34.5,3.1c0,0.7-0.1,4.5-0.5,14.1c-0.5,12,6.3,14.6,4.2,16.7
			C896.6,517.7,864.2,519.7,862.1,517.7"/>
		<path class="st66" d="M846.5,449.5c-0.4,0.4-5.2,11-7.3,16.2c0.5,1.9,1.1,5.4,1.6,5.4c0.5,0,7.8-18.8,7.8-20.4
			C848.6,449.2,847,449,846.5,449.5"/>
	</g>
	<g class="st0">
		<defs>
			<path id="SVGID_88_" d="M839.2,463.9c-0.5,1,3.1,11.5,4.2,13.1c1,1.6,9.4,4.2,12.5,3.7l0.5-7.8c-1.4-2.1-2.6-6.1-5.2-7.8
				c-2.1-1.4-5.2-1.9-7.8-1.9C841.2,463,839.4,463.4,839.2,463.9"/>
		</defs>
		<clipPath id="SVGID_89_">
			<use xlink:href="#SVGID_88_"  style="overflow:visible;"/>
		</clipPath>
		
			<linearGradient id="SVGID_90_" gradientUnits="userSpaceOnUse" x1="0" y1="800.0164" x2="1" y2="800.0164" gradientTransform="matrix(27.1979 29.3517 -29.3517 27.1979 24321.502 -21295.1406)">
			<stop  offset="0" style="stop-color:#FFD6C7"/>
			<stop  offset="1" style="stop-color:#FFC0AC"/>
		</linearGradient>
		<polygon class="st67" points="829.6,471.4 846.8,490 865.4,472.8 848.2,454.2 		"/>
	</g>
	<g class="st0">
		<defs>
			<rect id="SVGID_91_" width="1000" height="800"/>
		</defs>
		<clipPath id="SVGID_92_">
			<use xlink:href="#SVGID_91_"  style="overflow:visible;"/>
		</clipPath>
		<path class="st68" d="M903.9,413.3c-3.3-5.4-38.1-16.7-38.1-16.7s-1.7,4.7-2.1,7.8c-3.1,24-2.4,48.5-2.6,66.8l-4.7,1
			c-0.7,2.8-1.8,8.5-0.5,8.9c1.6,0.5,33.9,3.7,50.1,4.7c16.2,1,14.1-7.8,14.6-13.6C921.1,466.5,908.1,420,903.9,413.3"/>
		<path class="st69" d="M885.1,462.3c2.1-2.6,0-31.3,0-31.3s7.7,34.1,6.3,35c-2.6,1.6-30.3,5.2-30.3,5.2S883.2,464.7,885.1,462.3"/>
		<path class="st70" d="M864,470.2c-0.4-47.2,2.8-67.2,4.2-72.6l0.5,0.1c-1.4,5.4-4.6,25.3-4.2,72.5L864,470.2z"/>
		<defs>
			<filter id="Adobe_OpacityMaskFilter_4_" filterUnits="userSpaceOnUse" x="860.6" y="481.6" width="38.7" height="35.1">
				<feColorMatrix  type="matrix" values="1 0 0 0 0  0 1 0 0 0  0 0 1 0 0  0 0 0 1 0"/>
			</filter>
		</defs>
		<mask maskUnits="userSpaceOnUse" x="860.6" y="481.6" width="38.7" height="35.1" id="SVGID_93_">
			<g class="st71">
				<g>
					<defs>
						<rect id="SVGID_94_" x="860.6" y="481.6" width="38.7" height="35.1"/>
					</defs>
					<clipPath id="SVGID_95_" class="st72">
						<use xlink:href="#SVGID_94_"  style="overflow:visible;"/>
					</clipPath>
					<rect x="860.6" y="481.6" class="st73" width="39" height="36.6"/>
					<g class="st33">
						<g>
							<defs>
								<rect id="SVGID_96_" x="860.6" y="481.6" width="39" height="36.6"/>
							</defs>
							<clipPath id="SVGID_97_" class="st73">
								<use xlink:href="#SVGID_96_"  style="overflow:visible;"/>
							</clipPath>
							<path class="st74" d="M862.1,517.7c-1.7-1.7-1.7-24.7-1.6-36l34.5,3.1c0,0.7-0.1,4.5-0.5,14.1c-0.5,12,6.3,14.6,4.2,16.7
								C896.6,517.7,864.2,519.7,862.1,517.7"/>
						</g>
					</g>
				</g>
			</g>
		</mask>
		<g class="st75">
			<g>
				<defs>
					<rect id="SVGID_98_" x="860.6" y="481.6" width="38.7" height="35.1"/>
				</defs>
				<clipPath id="SVGID_99_">
					<use xlink:href="#SVGID_98_"  style="overflow:visible;"/>
				</clipPath>
				<path class="st76" d="M876.7,490c-4.2-4.2-13.8-7.5-16.2-8.4l37.1,3.7c0.7,9.6,2,29,1.6,30.3c-5.4,1.4-16,2.7-15.1-3.1
					c0.8-5.8-2.4-8.7-4.2-9.4C874.1,499.4,882,495.2,876.7,490"/>
			</g>
		</g>
		<path class="st77" d="M864.2,482.2c0,7.8,0,22.4,1.6,36"/>
		<path class="st78" d="M815.4,443.3c-0.9-4.2-4.6-5.7-8.1-5.7c-1.5,0-3,0.9-4.2,2.1c-0.6,0.6-1,1.2-1.4,1.8
			c-0.3,0.6-0.5,1.2-0.5,1.5h-1.6c0-0.7,0.3-1.5,0.6-2.2c0.4-0.8,0.9-1.5,1.6-2.2c1.3-1.4,3.2-2.5,5.3-2.6c3.9-0.1,8.5,1.7,9.7,6.9
			L815.4,443.3z"/>
		<polygon class="st79" points="806.3,503.6 784.9,442.5 833.4,442.5 853.8,503.6 		"/>
	</g>
	<g class="st0">
		<defs>
			<path id="SVGID_100_" d="M791.1,471.2c5.7,3.7,14.6,6.3,16.2,1.6c1.6-4.7-1-7.8-4.2-8.4c-3.1-0.5-12-3.7-12.5-5.7
				C789,461.6,786.5,468.3,791.1,471.2"/>
		</defs>
		<clipPath id="SVGID_101_">
			<use xlink:href="#SVGID_100_"  style="overflow:visible;"/>
		</clipPath>
		
			<linearGradient id="SVGID_102_" gradientUnits="userSpaceOnUse" x1="0" y1="800.0068" x2="1" y2="800.0068" gradientTransform="matrix(24.9677 31.8867 -31.8867 24.9677 26299.7402 -19515.9238)">
			<stop  offset="0" style="stop-color:#FFD6C7"/>
			<stop  offset="1" style="stop-color:#FFC0AC"/>
		</linearGradient>
		<polygon class="st80" points="777.4,465.8 795,488.3 818,470.3 800.4,447.8 		"/>
	</g>
	<g class="st0">
		<defs>
			<rect id="SVGID_103_" width="1000" height="800"/>
		</defs>
		<clipPath id="SVGID_104_">
			<use xlink:href="#SVGID_103_"  style="overflow:visible;"/>
		</clipPath>
		<rect x="687.8" y="311.6" class="st81" width="7.3" height="51.2"/>
		<rect x="591.7" y="285.5" class="st81" width="83.5" height="7.3"/>
		<path class="st82" d="M656.3,262.6c0-2.9,2.3-5.2,5.2-5.2h40.7v5.2H656.3z"/>
		<path class="st83" d="M706.9,251.6h17.7c3.7,0,4.7,1.6,4.7,4.7v6.3h-0.2c4.5,0,7.9,4,7.2,8.4l-6.1,38.6c-0.6,3.6-3.6,6.2-7.2,6.2
			h-60.6c-3.6,0-6.7-2.6-7.2-6.2l-6.1-38.6c-0.7-4.4,2.7-8.4,7.2-8.4h39.5l5.6-7.8C701.5,254.7,703.2,251.6,706.9,251.6"/>
		<path class="st84" d="M686.6,301.2c-5.8,1.8-11.9-1.5-13.7-7.3c-1.8-5.8,1.5-11.9,7.3-13.7c5-1.5,10.2,0.7,12.7,5l17.2-5.3
			c1.3-0.4,2.6,0.3,3,1.6c0.4,1.3-0.3,2.6-1.6,3l-0.7,0.2l1,3.1c0.3,0.9-0.2,1.8-1,2.1c-0.8,0.3-1.7-0.3-2-1.1l0-0.1
			c-0.1-0.3-0.4-0.5-0.7-0.4l-0.9,0.3c-0.3,0.1-0.5,0.4-0.4,0.7l0,0.1c0.3,0.9-0.2,1.8-1,2.1c-0.8,0.3-1.7-0.3-2-1.1l-1-3.1
			l-8.4,2.6C694.7,294.9,691.6,299.7,686.6,301.2 M689.3,288.9c-1-3.3-4.4-5.1-7.7-4.1c-3.3,1-5.1,4.4-4.1,7.7
			c1,3.3,4.5,5.1,7.7,4.1C688.5,295.6,690.3,292.2,689.3,288.9"/>
		<rect x="267" y="279.3" class="st81" width="7.3" height="83.5"/>
		<rect x="295.2" y="260" class="st81" width="83.5" height="7.3"/>
		<path class="st82" d="M234.5,239.2c0-2.9,2.3-5.2,5.2-5.2h40.7v5.2H234.5z"/>
		<path class="st83" d="M285.1,228.2h17.7c3.7,0,4.7,1.6,4.7,4.7v6.3h-0.2c4.5,0,7.9,4,7.2,8.4l-6.1,38.6c-0.6,3.6-3.6,6.2-7.2,6.2
			h-60.6c-3.6,0-6.7-2.6-7.2-6.2l-6.1-38.6c-0.7-4.4,2.7-8.4,7.2-8.4h39.5l5.6-7.8C279.7,231.3,281.4,228.2,285.1,228.2"/>
		<path class="st85" d="M271.2,249.6c-8.6,0-15.7,7-15.7,15.7s7,15.7,15.7,15.7s15.7-7,15.7-15.7S279.8,249.6,271.2,249.6
			 M279.1,261.9l-8.5,8.5c-0.3,0.3-0.6,0.4-0.9,0.4c-0.3,0-0.7-0.1-0.9-0.4l-4.2-4.2c-0.5-0.5-0.5-1.3,0-1.8c0.5-0.5,1.3-0.5,1.8,0
			l3.3,3.3l7.6-7.6c0.5-0.5,1.3-0.5,1.8,0C279.6,260.6,279.6,261.4,279.1,261.9"/>
		<path class="st86" d="M550,359.8h226.6c5.8,0,10.4,4.7,10.4,10.4v314.2c0,5.8-4.7,10.4-10.4,10.4H550c-5.8,0-10.4-4.7-10.4-10.4
			V370.2C539.5,364.4,544.2,359.8,550,359.8"/>
		<path class="st87" d="M564.4,631.6h197.7c5.8,0,10.4,4.7,10.4,10.4v15.2c0,5.8-4.7,10.4-10.4,10.4H564.4
			c-5.8,0-10.4-4.7-10.4-10.4V642C554,636.3,558.6,631.6,564.4,631.6"/>
		<path class="st81" d="M667.9,647h65.6c0.6,0,1,0.5,1,1v4.2c0,0.6-0.5,1-1,1h-65.6c-0.6,0-1-0.5-1-1V648
			C666.8,647.4,667.3,647,667.9,647"/>
		<path class="st81" d="M565.7,649.8c0-1.6,1.2-3,2.8-3.1l22.6-2.1c1.8-0.2,3.4,1.3,3.4,3.1v4.9c0,1.8-1.6,3.3-3.4,3.1l-22.6-2.1
			c-1.6-0.2-2.8-1.5-2.8-3.1V649.8z"/>
		<path class="st85" d="M748.5,641.5h10c1.7,0,3.1,1.4,3.1,3.1v10c0,1.7-1.4,3.1-3.1,3.1h-10c-1.7,0-3.1-1.4-3.1-3.1v-10
			C745.4,642.9,746.8,641.5,748.5,641.5"/>
		<path class="st88" d="M607.2,647c1.5,0,2.7,1.2,2.7,2.7c0,1.5-1.2,2.7-2.7,2.7c-1.5,0-2.7-1.2-2.7-2.7
			C604.5,648.2,605.8,647,607.2,647"/>
		<path class="st88" d="M620.8,647c1.5,0,2.7,1.2,2.7,2.7c0,1.5-1.2,2.7-2.7,2.7c-1.5,0-2.7-1.2-2.7-2.7
			C618.1,648.2,619.3,647,620.8,647"/>
		<path class="st89" d="M647.9,647c1.5,0,2.7,1.2,2.7,2.7c0,1.5-1.2,2.7-2.7,2.7c-1.5,0-2.7-1.2-2.7-2.7
			C645.2,648.2,646.4,647,647.9,647"/>
		<path class="st90" d="M634.3,647c1.5,0,2.7,1.2,2.7,2.7c0,1.5-1.2,2.7-2.7,2.7c-1.5,0-2.7-1.2-2.7-2.7
			C631.6,648.2,632.8,647,634.3,647"/>
		<path class="st87" d="M564.4,581.9h197.7c5.8,0,10.4,4.7,10.4,10.4v15.2c0,5.8-4.7,10.4-10.4,10.4H564.4
			c-5.8,0-10.4-4.7-10.4-10.4v-15.2C554,586.6,558.6,581.9,564.4,581.9"/>
		<path class="st81" d="M667.9,597.3h65.6c0.6,0,1,0.5,1,1v4.2c0,0.6-0.5,1-1,1h-65.6c-0.6,0-1-0.5-1-1v-4.2
			C666.8,597.7,667.3,597.3,667.9,597.3"/>
		<path class="st81" d="M565.7,600.1c0-1.6,1.2-3,2.8-3.1l22.6-2.1c1.8-0.2,3.4,1.3,3.4,3.1v4.9c0,1.8-1.6,3.3-3.4,3.1l-22.6-2.1
			c-1.6-0.2-2.8-1.5-2.8-3.1V600.1z"/>
		<path class="st85" d="M748.5,591.9h10c1.7,0,3.1,1.4,3.1,3.1v10c0,1.7-1.4,3.1-3.1,3.1h-10c-1.7,0-3.1-1.4-3.1-3.1v-10
			C745.4,593.3,746.8,591.9,748.5,591.9"/>
		<path class="st89" d="M607.2,597.3c1.5,0,2.7,1.2,2.7,2.7s-1.2,2.7-2.7,2.7c-1.5,0-2.7-1.2-2.7-2.7S605.8,597.3,607.2,597.3"/>
		<path class="st90" d="M620.8,597.3c1.5,0,2.7,1.2,2.7,2.7s-1.2,2.7-2.7,2.7c-1.5,0-2.7-1.2-2.7-2.7S619.3,597.3,620.8,597.3"/>
		<path class="st85" d="M647.9,597.3c1.5,0,2.7,1.2,2.7,2.7s-1.2,2.7-2.7,2.7c-1.5,0-2.7-1.2-2.7-2.7S646.4,597.3,647.9,597.3"/>
		<path class="st85" d="M634.3,597.3c1.5,0,2.7,1.2,2.7,2.7s-1.2,2.7-2.7,2.7c-1.5,0-2.7-1.2-2.7-2.7S632.8,597.3,634.3,597.3"/>
		<path class="st87" d="M564.4,532.3h197.7c5.8,0,10.4,4.7,10.4,10.4v15.2c0,5.8-4.7,10.4-10.4,10.4H564.4
			c-5.8,0-10.4-4.7-10.4-10.4v-15.2C554,536.9,558.6,532.3,564.4,532.3"/>
		<path class="st81" d="M667.9,547.6h65.6c0.6,0,1,0.5,1,1v4.2c0,0.6-0.5,1-1,1h-65.6c-0.6,0-1-0.5-1-1v-4.2
			C666.8,548.1,667.3,547.6,667.9,547.6"/>
		<path class="st81" d="M565.7,550.5c0-1.6,1.2-3,2.8-3.1l22.6-2.1c1.8-0.2,3.4,1.3,3.4,3.1v4.9c0,1.8-1.6,3.3-3.4,3.1l-22.6-2.1
			c-1.6-0.2-2.8-1.5-2.8-3.1V550.5z"/>
		<path class="st85" d="M748.5,542.2h10c1.7,0,3.1,1.4,3.1,3.1v10c0,1.7-1.4,3.1-3.1,3.1h-10c-1.7,0-3.1-1.4-3.1-3.1v-10
			C745.4,543.6,746.8,542.2,748.5,542.2"/>
		<path class="st81" d="M607.2,547.6c1.5,0,2.7,1.2,2.7,2.7c0,1.5-1.2,2.7-2.7,2.7c-1.5,0-2.7-1.2-2.7-2.7
			C604.5,548.8,605.8,547.6,607.2,547.6"/>
		<path class="st90" d="M620.8,547.6c1.5,0,2.7,1.2,2.7,2.7c0,1.5-1.2,2.7-2.7,2.7c-1.5,0-2.7-1.2-2.7-2.7
			C618.1,548.8,619.3,547.6,620.8,547.6"/>
		<path class="st88" d="M647.9,547.6c1.5,0,2.7,1.2,2.7,2.7c0,1.5-1.2,2.7-2.7,2.7c-1.5,0-2.7-1.2-2.7-2.7
			C645.2,548.8,646.4,547.6,647.9,547.6"/>
		<path class="st81" d="M634.3,547.6c1.5,0,2.7,1.2,2.7,2.7c0,1.5-1.2,2.7-2.7,2.7c-1.5,0-2.7-1.2-2.7-2.7
			C631.6,548.8,632.8,547.6,634.3,547.6"/>
		<path class="st87" d="M564.4,482.6h197.7c5.8,0,10.4,4.7,10.4,10.4v15.2c0,5.8-4.7,10.4-10.4,10.4H564.4
			c-5.8,0-10.4-4.7-10.4-10.4V493C554,487.3,558.6,482.6,564.4,482.6"/>
		<path class="st81" d="M667.9,497.9h65.6c0.6,0,1,0.5,1,1v4.2c0,0.6-0.5,1-1,1h-65.6c-0.6,0-1-0.5-1-1V499
			C666.8,498.4,667.3,497.9,667.9,497.9"/>
		<path class="st81" d="M565.7,500.8c0-1.6,1.2-3,2.8-3.1l22.6-2.1c1.8-0.2,3.4,1.3,3.4,3.1v4.9c0,1.8-1.6,3.3-3.4,3.1l-22.6-2.1
			c-1.6-0.2-2.8-1.5-2.8-3.1V500.8z"/>
		<path class="st85" d="M748.5,492.5h10c1.7,0,3.1,1.4,3.1,3.1v10c0,1.7-1.4,3.1-3.1,3.1h-10c-1.7,0-3.1-1.4-3.1-3.1v-10
			C745.4,493.9,746.8,492.5,748.5,492.5"/>
		<path class="st90" d="M607.2,497.9c1.5,0,2.7,1.2,2.7,2.7c0,1.5-1.2,2.7-2.7,2.7c-1.5,0-2.7-1.2-2.7-2.7
			C604.5,499.2,605.8,497.9,607.2,497.9"/>
		<path class="st89" d="M620.8,497.9c1.5,0,2.7,1.2,2.7,2.7c0,1.5-1.2,2.7-2.7,2.7c-1.5,0-2.7-1.2-2.7-2.7
			C618.1,499.2,619.3,497.9,620.8,497.9"/>
		<path class="st85" d="M647.9,497.9c1.5,0,2.7,1.2,2.7,2.7c0,1.5-1.2,2.7-2.7,2.7c-1.5,0-2.7-1.2-2.7-2.7
			C645.2,499.2,646.4,497.9,647.9,497.9"/>
		<path class="st90" d="M634.3,497.9c1.5,0,2.7,1.2,2.7,2.7c0,1.5-1.2,2.7-2.7,2.7c-1.5,0-2.7-1.2-2.7-2.7
			C631.6,499.2,632.8,497.9,634.3,497.9"/>
		<path class="st87" d="M564.4,432.9h197.7c5.8,0,10.4,4.7,10.4,10.4v15.2c0,5.8-4.7,10.4-10.4,10.4H564.4
			c-5.8,0-10.4-4.7-10.4-10.4v-15.2C554,437.6,558.6,432.9,564.4,432.9"/>
		<path class="st81" d="M667.9,448.3h65.6c0.6,0,1,0.5,1,1v4.2c0,0.6-0.5,1-1,1h-65.6c-0.6,0-1-0.5-1-1v-4.2
			C666.8,448.7,667.3,448.3,667.9,448.3"/>
		<path class="st81" d="M565.7,451.1c0-1.6,1.2-3,2.8-3.1l22.6-2.1c1.8-0.2,3.4,1.3,3.4,3.1v4.9c0,1.8-1.6,3.3-3.4,3.1l-22.6-2.1
			c-1.6-0.2-2.8-1.5-2.8-3.1V451.1z"/>
		<path class="st85" d="M748.5,442.9h10c1.7,0,3.1,1.4,3.1,3.1v10c0,1.7-1.4,3.1-3.1,3.1h-10c-1.7,0-3.1-1.4-3.1-3.1v-10
			C745.4,444.3,746.8,442.9,748.5,442.9"/>
		<path class="st89" d="M607.2,448.3c1.5,0,2.7,1.2,2.7,2.7s-1.2,2.7-2.7,2.7c-1.5,0-2.7-1.2-2.7-2.7S605.8,448.3,607.2,448.3"/>
		<path class="st88" d="M620.8,448.3c1.5,0,2.7,1.2,2.7,2.7s-1.2,2.7-2.7,2.7c-1.5,0-2.7-1.2-2.7-2.7S619.3,448.3,620.8,448.3"/>
		<path class="st89" d="M647.9,448.3c1.5,0,2.7,1.2,2.7,2.7s-1.2,2.7-2.7,2.7c-1.5,0-2.7-1.2-2.7-2.7S646.4,448.3,647.9,448.3"/>
		<path class="st90" d="M634.3,448.3c1.5,0,2.7,1.2,2.7,2.7s-1.2,2.7-2.7,2.7c-1.5,0-2.7-1.2-2.7-2.7S632.8,448.3,634.3,448.3"/>
		<path class="st87" d="M564.4,383.3h197.7c5.8,0,10.4,4.7,10.4,10.4v15.2c0,5.8-4.7,10.4-10.4,10.4H564.4
			c-5.8,0-10.4-4.7-10.4-10.4v-15.2C554,387.9,558.6,383.3,564.4,383.3"/>
		<path class="st81" d="M667.9,398.6h65.6c0.6,0,1,0.5,1,1v4.2c0,0.6-0.5,1-1,1h-65.6c-0.6,0-1-0.5-1-1v-4.2
			C666.8,399.1,667.3,398.6,667.9,398.6"/>
		<path class="st81" d="M565.7,401.5c0-1.6,1.2-3,2.8-3.1l22.6-2.1c1.8-0.2,3.4,1.3,3.4,3.1v4.9c0,1.8-1.6,3.3-3.4,3.1l-22.6-2.1
			c-1.6-0.2-2.8-1.5-2.8-3.1V401.5z"/>
		<path class="st85" d="M748.5,393.2h10c1.7,0,3.1,1.4,3.1,3.1v10c0,1.7-1.4,3.1-3.1,3.1h-10c-1.7,0-3.1-1.4-3.1-3.1v-10
			C745.4,394.6,746.8,393.2,748.5,393.2"/>
		<path class="st85" d="M607.2,398.6c1.5,0,2.7,1.2,2.7,2.7c0,1.5-1.2,2.7-2.7,2.7c-1.5,0-2.7-1.2-2.7-2.7
			C604.5,399.8,605.8,398.6,607.2,398.6"/>
		<path class="st89" d="M620.8,398.6c1.5,0,2.7,1.2,2.7,2.7c0,1.5-1.2,2.7-2.7,2.7c-1.5,0-2.7-1.2-2.7-2.7
			C618.1,399.8,619.3,398.6,620.8,398.6"/>
		<path class="st81" d="M647.9,398.6c1.5,0,2.7,1.2,2.7,2.7c0,1.5-1.2,2.7-2.7,2.7c-1.5,0-2.7-1.2-2.7-2.7
			C645.2,399.8,646.4,398.6,647.9,398.6"/>
		<path class="st90" d="M634.3,398.6c1.5,0,2.7,1.2,2.7,2.7c0,1.5-1.2,2.7-2.7,2.7c-1.5,0-2.7-1.2-2.7-2.7
			C631.6,399.8,632.8,398.6,634.3,398.6"/>
		<path class="st86" d="M182.4,359.8H409c5.8,0,10.4,4.7,10.4,10.4v314.2c0,5.8-4.7,10.4-10.4,10.4H182.4c-5.8,0-10.4-4.7-10.4-10.4
			V370.2C172,364.4,176.7,359.8,182.4,359.8"/>
		<path class="st87" d="M196.9,631.6h197.7c5.8,0,10.4,4.7,10.4,10.4v15.2c0,5.8-4.7,10.4-10.4,10.4H196.9
			c-5.8,0-10.4-4.7-10.4-10.4V642C186.5,636.3,191.1,631.6,196.9,631.6"/>
		<path class="st81" d="M300.4,647H366c0.6,0,1,0.5,1,1v4.2c0,0.6-0.5,1-1,1h-65.6c-0.6,0-1-0.5-1-1V648
			C299.3,647.4,299.8,647,300.4,647"/>
		<path class="st81" d="M198.2,649.8c0-1.6,1.2-3,2.8-3.1l22.6-2.1c1.8-0.2,3.4,1.3,3.4,3.1v4.9c0,1.8-1.6,3.3-3.4,3.1l-22.6-2.1
			c-1.6-0.2-2.8-1.5-2.8-3.1V649.8z"/>
		<path class="st85" d="M381,641.5h10c1.7,0,3.1,1.4,3.1,3.1v10c0,1.7-1.4,3.1-3.1,3.1h-10c-1.7,0-3.1-1.4-3.1-3.1v-10
			C377.9,642.9,379.3,641.5,381,641.5"/>
		<path class="st88" d="M239.7,647c1.5,0,2.7,1.2,2.7,2.7c0,1.5-1.2,2.7-2.7,2.7c-1.5,0-2.7-1.2-2.7-2.7
			C237,648.2,238.2,647,239.7,647"/>
		<path class="st88" d="M253.3,647c1.5,0,2.7,1.2,2.7,2.7c0,1.5-1.2,2.7-2.7,2.7c-1.5,0-2.7-1.2-2.7-2.7
			C250.6,648.2,251.8,647,253.3,647"/>
		<path class="st89" d="M280.4,647c1.5,0,2.7,1.2,2.7,2.7c0,1.5-1.2,2.7-2.7,2.7c-1.5,0-2.7-1.2-2.7-2.7
			C277.7,648.2,278.9,647,280.4,647"/>
		<path class="st90" d="M266.8,647c1.5,0,2.7,1.2,2.7,2.7c0,1.5-1.2,2.7-2.7,2.7c-1.5,0-2.7-1.2-2.7-2.7
			C264.1,648.2,265.3,647,266.8,647"/>
		<path class="st87" d="M196.9,581.9h197.7c5.8,0,10.4,4.7,10.4,10.4v15.2c0,5.8-4.7,10.4-10.4,10.4H196.9
			c-5.8,0-10.4-4.7-10.4-10.4v-15.2C186.5,586.6,191.1,581.9,196.9,581.9"/>
		<path class="st81" d="M300.4,597.3H366c0.6,0,1,0.5,1,1v4.2c0,0.6-0.5,1-1,1h-65.6c-0.6,0-1-0.5-1-1v-4.2
			C299.3,597.7,299.8,597.3,300.4,597.3"/>
		<path class="st81" d="M198.2,600.1c0-1.6,1.2-3,2.8-3.1l22.6-2.1c1.8-0.2,3.4,1.3,3.4,3.1v4.9c0,1.8-1.6,3.3-3.4,3.1l-22.6-2.1
			c-1.6-0.2-2.8-1.5-2.8-3.1V600.1z"/>
		<path class="st85" d="M381,591.9h10c1.7,0,3.1,1.4,3.1,3.1v10c0,1.7-1.4,3.1-3.1,3.1h-10c-1.7,0-3.1-1.4-3.1-3.1v-10
			C377.9,593.3,379.3,591.9,381,591.9"/>
		<path class="st89" d="M239.7,597.3c1.5,0,2.7,1.2,2.7,2.7s-1.2,2.7-2.7,2.7c-1.5,0-2.7-1.2-2.7-2.7S238.2,597.3,239.7,597.3"/>
		<path class="st90" d="M253.3,597.3c1.5,0,2.7,1.2,2.7,2.7s-1.2,2.7-2.7,2.7c-1.5,0-2.7-1.2-2.7-2.7S251.8,597.3,253.3,597.3"/>
		<path class="st85" d="M280.4,597.3c1.5,0,2.7,1.2,2.7,2.7s-1.2,2.7-2.7,2.7c-1.5,0-2.7-1.2-2.7-2.7S278.9,597.3,280.4,597.3"/>
		<path class="st85" d="M266.8,597.3c1.5,0,2.7,1.2,2.7,2.7s-1.2,2.7-2.7,2.7c-1.5,0-2.7-1.2-2.7-2.7S265.3,597.3,266.8,597.3"/>
		<path class="st87" d="M196.9,532.3h197.7c5.8,0,10.4,4.7,10.4,10.4v15.2c0,5.8-4.7,10.4-10.4,10.4H196.9
			c-5.8,0-10.4-4.7-10.4-10.4v-15.2C186.5,536.9,191.1,532.3,196.9,532.3"/>
		<path class="st81" d="M300.4,547.6H366c0.6,0,1,0.5,1,1v4.2c0,0.6-0.5,1-1,1h-65.6c-0.6,0-1-0.5-1-1v-4.2
			C299.3,548.1,299.8,547.6,300.4,547.6"/>
		<path class="st81" d="M198.2,550.5c0-1.6,1.2-3,2.8-3.1l22.6-2.1c1.8-0.2,3.4,1.3,3.4,3.1v4.9c0,1.8-1.6,3.3-3.4,3.1l-22.6-2.1
			c-1.6-0.2-2.8-1.5-2.8-3.1V550.5z"/>
		<path class="st85" d="M381,542.2h10c1.7,0,3.1,1.4,3.1,3.1v10c0,1.7-1.4,3.1-3.1,3.1h-10c-1.7,0-3.1-1.4-3.1-3.1v-10
			C377.9,543.6,379.3,542.2,381,542.2"/>
		<path class="st81" d="M239.7,547.6c1.5,0,2.7,1.2,2.7,2.7c0,1.5-1.2,2.7-2.7,2.7c-1.5,0-2.7-1.2-2.7-2.7
			C237,548.8,238.2,547.6,239.7,547.6"/>
		<path class="st90" d="M253.3,547.6c1.5,0,2.7,1.2,2.7,2.7c0,1.5-1.2,2.7-2.7,2.7c-1.5,0-2.7-1.2-2.7-2.7
			C250.6,548.8,251.8,547.6,253.3,547.6"/>
		<path class="st88" d="M280.4,547.6c1.5,0,2.7,1.2,2.7,2.7c0,1.5-1.2,2.7-2.7,2.7c-1.5,0-2.7-1.2-2.7-2.7
			C277.7,548.8,278.9,547.6,280.4,547.6"/>
		<path class="st81" d="M266.8,547.6c1.5,0,2.7,1.2,2.7,2.7c0,1.5-1.2,2.7-2.7,2.7c-1.5,0-2.7-1.2-2.7-2.7
			C264.1,548.8,265.3,547.6,266.8,547.6"/>
		<path class="st87" d="M196.9,482.6h197.7c5.8,0,10.4,4.7,10.4,10.4v15.2c0,5.8-4.7,10.4-10.4,10.4H196.9
			c-5.8,0-10.4-4.7-10.4-10.4V493C186.5,487.3,191.1,482.6,196.9,482.6"/>
		<path class="st81" d="M300.4,497.9H366c0.6,0,1,0.5,1,1v4.2c0,0.6-0.5,1-1,1h-65.6c-0.6,0-1-0.5-1-1V499
			C299.3,498.4,299.8,497.9,300.4,497.9"/>
		<path class="st81" d="M198.2,500.8c0-1.6,1.2-3,2.8-3.1l22.6-2.1c1.8-0.2,3.4,1.3,3.4,3.1v4.9c0,1.8-1.6,3.3-3.4,3.1l-22.6-2.1
			c-1.6-0.2-2.8-1.5-2.8-3.1V500.8z"/>
		<path class="st85" d="M381,492.5h10c1.7,0,3.1,1.4,3.1,3.1v10c0,1.7-1.4,3.1-3.1,3.1h-10c-1.7,0-3.1-1.4-3.1-3.1v-10
			C377.9,493.9,379.3,492.5,381,492.5"/>
		<path class="st90" d="M239.7,497.9c1.5,0,2.7,1.2,2.7,2.7c0,1.5-1.2,2.7-2.7,2.7c-1.5,0-2.7-1.2-2.7-2.7
			C237,499.2,238.2,497.9,239.7,497.9"/>
		<path class="st89" d="M253.3,497.9c1.5,0,2.7,1.2,2.7,2.7c0,1.5-1.2,2.7-2.7,2.7c-1.5,0-2.7-1.2-2.7-2.7
			C250.6,499.2,251.8,497.9,253.3,497.9"/>
		<path class="st85" d="M280.4,497.9c1.5,0,2.7,1.2,2.7,2.7c0,1.5-1.2,2.7-2.7,2.7c-1.5,0-2.7-1.2-2.7-2.7
			C277.7,499.2,278.9,497.9,280.4,497.9"/>
		<path class="st90" d="M266.8,497.9c1.5,0,2.7,1.2,2.7,2.7c0,1.5-1.2,2.7-2.7,2.7c-1.5,0-2.7-1.2-2.7-2.7
			C264.1,499.2,265.3,497.9,266.8,497.9"/>
		<path class="st87" d="M196.9,432.9h197.7c5.8,0,10.4,4.7,10.4,10.4v15.2c0,5.8-4.7,10.4-10.4,10.4H196.9
			c-5.8,0-10.4-4.7-10.4-10.4v-15.2C186.5,437.6,191.1,432.9,196.9,432.9"/>
		<path class="st81" d="M300.4,448.3H366c0.6,0,1,0.5,1,1v4.2c0,0.6-0.5,1-1,1h-65.6c-0.6,0-1-0.5-1-1v-4.2
			C299.3,448.7,299.8,448.3,300.4,448.3"/>
		<path class="st81" d="M198.2,451.1c0-1.6,1.2-3,2.8-3.1l22.6-2.1c1.8-0.2,3.4,1.3,3.4,3.1v4.9c0,1.8-1.6,3.3-3.4,3.1l-22.6-2.1
			c-1.6-0.2-2.8-1.5-2.8-3.1V451.1z"/>
		<path class="st85" d="M381,442.9h10c1.7,0,3.1,1.4,3.1,3.1v10c0,1.7-1.4,3.1-3.1,3.1h-10c-1.7,0-3.1-1.4-3.1-3.1v-10
			C377.9,444.3,379.3,442.9,381,442.9"/>
		<path class="st89" d="M239.7,448.3c1.5,0,2.7,1.2,2.7,2.7s-1.2,2.7-2.7,2.7c-1.5,0-2.7-1.2-2.7-2.7S238.2,448.3,239.7,448.3"/>
		<path class="st88" d="M253.3,448.3c1.5,0,2.7,1.2,2.7,2.7s-1.2,2.7-2.7,2.7c-1.5,0-2.7-1.2-2.7-2.7S251.8,448.3,253.3,448.3"/>
		<path class="st89" d="M280.4,448.3c1.5,0,2.7,1.2,2.7,2.7s-1.2,2.7-2.7,2.7c-1.5,0-2.7-1.2-2.7-2.7S278.9,448.3,280.4,448.3"/>
		<path class="st90" d="M266.8,448.3c1.5,0,2.7,1.2,2.7,2.7s-1.2,2.7-2.7,2.7c-1.5,0-2.7-1.2-2.7-2.7S265.3,448.3,266.8,448.3"/>
		<path class="st87" d="M196.9,383.3h197.7c5.8,0,10.4,4.7,10.4,10.4v15.2c0,5.8-4.7,10.4-10.4,10.4H196.9
			c-5.8,0-10.4-4.7-10.4-10.4v-15.2C186.5,387.9,191.1,383.3,196.9,383.3"/>
		<path class="st81" d="M300.4,398.6H366c0.6,0,1,0.5,1,1v4.2c0,0.6-0.5,1-1,1h-65.6c-0.6,0-1-0.5-1-1v-4.2
			C299.3,399.1,299.8,398.6,300.4,398.6"/>
		<path class="st81" d="M198.2,401.5c0-1.6,1.2-3,2.8-3.1l22.6-2.1c1.8-0.2,3.4,1.3,3.4,3.1v4.9c0,1.8-1.6,3.3-3.4,3.1l-22.6-2.1
			c-1.6-0.2-2.8-1.5-2.8-3.1V401.5z"/>
		<path class="st85" d="M381,393.2h10c1.7,0,3.1,1.4,3.1,3.1v10c0,1.7-1.4,3.1-3.1,3.1h-10c-1.7,0-3.1-1.4-3.1-3.1v-10
			C377.9,394.6,379.3,393.2,381,393.2"/>
		<path class="st85" d="M239.7,398.6c1.5,0,2.7,1.2,2.7,2.7c0,1.5-1.2,2.7-2.7,2.7c-1.5,0-2.7-1.2-2.7-2.7
			C237,399.8,238.2,398.6,239.7,398.6"/>
		<path class="st89" d="M253.3,398.6c1.5,0,2.7,1.2,2.7,2.7c0,1.5-1.2,2.7-2.7,2.7c-1.5,0-2.7-1.2-2.7-2.7
			C250.6,399.8,251.8,398.6,253.3,398.6"/>
		<path class="st81" d="M280.4,398.6c1.5,0,2.7,1.2,2.7,2.7c0,1.5-1.2,2.7-2.7,2.7c-1.5,0-2.7-1.2-2.7-2.7
			C277.7,399.8,278.9,398.6,280.4,398.6"/>
		<path class="st90" d="M266.8,398.6c1.5,0,2.7,1.2,2.7,2.7c0,1.5-1.2,2.7-2.7,2.7c-1.5,0-2.7-1.2-2.7-2.7
			C264.1,399.8,265.3,398.6,266.8,398.6"/>
		<g class="st91">
			<g>
				<defs>
					<rect id="SVGID_105_" x="622" y="359.7" width="20.9" height="335.1"/>
				</defs>
				<clipPath id="SVGID_106_">
					<use xlink:href="#SVGID_105_"  style="overflow:visible;"/>
				</clipPath>
				<polygon class="st92" points="622,359.7 642.9,359.7 627.2,694.8 622,694.8 				"/>
			</g>
		</g>
		<path class="st93" d="M351.6,326.3h265.2c5.8,0,10.4,4.7,10.4,10.4v366.5c0,5.8-4.7,10.4-10.4,10.4H351.6
			c-5.8,0-10.4-4.7-10.4-10.4V336.7C341.1,330.9,345.8,326.3,351.6,326.3"/>
		<path class="st87" d="M368.3,640.5h231.8c5.8,0,10.4,4.7,10.4,10.4v20.9c0,5.8-4.7,10.4-10.4,10.4H368.3
			c-5.8,0-10.4-4.7-10.4-10.4V651C357.8,645.2,362.5,640.5,368.3,640.5"/>
		<path class="st81" d="M489.4,658.3h76.2c0.6,0,1,0.5,1,1v5.2c0,0.6-0.5,1-1,1h-76.2c-0.6,0-1-0.5-1-1v-5.2
			C488.4,658.7,488.8,658.3,489.4,658.3"/>
		<path class="st81" d="M371.4,661.1c0-1.6,1.2-3,2.8-3.1l27.1-2.5c1.8-0.2,3.4,1.3,3.4,3.1v6.7c0,1.8-1.6,3.3-3.4,3.1l-27.1-2.5
			c-1.6-0.2-2.8-1.5-2.8-3.1V661.1z"/>
		<path class="st85" d="M582.3,652h12.5c1.7,0,3.1,1.4,3.1,3.1v12.5c0,1.7-1.4,3.1-3.1,3.1h-12.5c-1.7,0-3.1-1.4-3.1-3.1v-12.5
			C579.2,653.4,580.6,652,582.3,652"/>
		<path class="st88" d="M419.4,658.3c1.7,0,3.1,1.4,3.1,3.1c0,1.7-1.4,3.1-3.1,3.1c-1.7,0-3.1-1.4-3.1-3.1
			C416.3,659.7,417.7,658.3,419.4,658.3"/>
		<path class="st90" d="M435.1,658.3c1.7,0,3.1,1.4,3.1,3.1c0,1.7-1.4,3.1-3.1,3.1c-1.7,0-3.1-1.4-3.1-3.1
			C432,659.7,433.4,658.3,435.1,658.3"/>
		<path class="st90" d="M466.4,658.3c1.7,0,3.1,1.4,3.1,3.1c0,1.7-1.4,3.1-3.1,3.1c-1.7,0-3.1-1.4-3.1-3.1
			C463.3,659.7,464.7,658.3,466.4,658.3"/>
		<path class="st90" d="M450.8,658.3c1.7,0,3.1,1.4,3.1,3.1c0,1.7-1.4,3.1-3.1,3.1c-1.7,0-3.1-1.4-3.1-3.1
			C447.6,659.7,449,658.3,450.8,658.3"/>
		<path class="st87" d="M368.3,583.1h231.8c5.8,0,10.4,4.7,10.4,10.4v20.9c0,5.8-4.7,10.4-10.4,10.4H368.3
			c-5.8,0-10.4-4.7-10.4-10.4v-20.9C357.8,587.8,362.5,583.1,368.3,583.1"/>
		<path class="st81" d="M489.4,600.8h76.2c0.6,0,1,0.5,1,1v5.2c0,0.6-0.5,1-1,1h-76.2c-0.6,0-1-0.5-1-1v-5.2
			C488.4,601.3,488.8,600.8,489.4,600.8"/>
		<path class="st81" d="M371.4,603.7c0-1.6,1.2-3,2.8-3.1l27.1-2.5c1.8-0.2,3.4,1.3,3.4,3.1v6.7c0,1.8-1.6,3.3-3.4,3.1l-27.1-2.5
			c-1.6-0.2-2.8-1.5-2.8-3.1V603.7z"/>
		<path class="st85" d="M582.3,594.6h12.5c1.7,0,3.1,1.4,3.1,3.1v12.5c0,1.7-1.4,3.1-3.1,3.1h-12.5c-1.7,0-3.1-1.4-3.1-3.1v-12.5
			C579.2,596,580.6,594.6,582.3,594.6"/>
		<path class="st89" d="M419.4,600.8c1.7,0,3.1,1.4,3.1,3.1c0,1.7-1.4,3.1-3.1,3.1c-1.7,0-3.1-1.4-3.1-3.1
			C416.3,602.3,417.7,600.8,419.4,600.8"/>
		<path class="st90" d="M435.1,600.8c1.7,0,3.1,1.4,3.1,3.1c0,1.7-1.4,3.1-3.1,3.1c-1.7,0-3.1-1.4-3.1-3.1
			C432,602.3,433.4,600.8,435.1,600.8"/>
		<path class="st85" d="M466.4,600.8c1.7,0,3.1,1.4,3.1,3.1c0,1.7-1.4,3.1-3.1,3.1c-1.7,0-3.1-1.4-3.1-3.1
			C463.3,602.3,464.7,600.8,466.4,600.8"/>
		<path class="st85" d="M450.8,600.8c1.7,0,3.1,1.4,3.1,3.1c0,1.7-1.4,3.1-3.1,3.1c-1.7,0-3.1-1.4-3.1-3.1
			C447.6,602.3,449,600.8,450.8,600.8"/>
		<path class="st87" d="M368.3,525.7h231.8c5.8,0,10.4,4.7,10.4,10.4V557c0,5.8-4.7,10.4-10.4,10.4H368.3c-5.8,0-10.4-4.7-10.4-10.4
			v-20.9C357.8,530.4,362.5,525.7,368.3,525.7"/>
		<path class="st81" d="M489.4,543.4h76.2c0.6,0,1,0.5,1,1v5.2c0,0.6-0.5,1-1,1h-76.2c-0.6,0-1-0.5-1-1v-5.2
			C488.4,543.9,488.8,543.4,489.4,543.4"/>
		<path class="st81" d="M371.4,546.3c0-1.6,1.2-3,2.8-3.1l27.1-2.5c1.8-0.2,3.4,1.3,3.4,3.1v6.7c0,1.8-1.6,3.3-3.4,3.1l-27.1-2.5
			c-1.6-0.2-2.8-1.5-2.8-3.1V546.3z"/>
		<path class="st85" d="M582.3,537.2h12.5c1.7,0,3.1,1.4,3.1,3.1v12.5c0,1.7-1.4,3.1-3.1,3.1h-12.5c-1.7,0-3.1-1.4-3.1-3.1v-12.5
			C579.2,538.6,580.6,537.2,582.3,537.2"/>
		<path class="st88" d="M419.4,543.4c1.7,0,3.1,1.4,3.1,3.1c0,1.7-1.4,3.1-3.1,3.1c-1.7,0-3.1-1.4-3.1-3.1
			C416.3,544.8,417.7,543.4,419.4,543.4"/>
		<path class="st90" d="M435.1,543.4c1.7,0,3.1,1.4,3.1,3.1c0,1.7-1.4,3.1-3.1,3.1c-1.7,0-3.1-1.4-3.1-3.1
			C432,544.8,433.4,543.4,435.1,543.4"/>
		<path class="st89" d="M466.4,543.4c1.7,0,3.1,1.4,3.1,3.1c0,1.7-1.4,3.1-3.1,3.1c-1.7,0-3.1-1.4-3.1-3.1
			C463.3,544.8,464.7,543.4,466.4,543.4"/>
		<path class="st88" d="M450.8,543.4c1.7,0,3.1,1.4,3.1,3.1c0,1.7-1.4,3.1-3.1,3.1c-1.7,0-3.1-1.4-3.1-3.1
			C447.6,544.8,449,543.4,450.8,543.4"/>
		<path class="st87" d="M368.3,468.3h231.8c5.8,0,10.4,4.7,10.4,10.4v20.9c0,5.8-4.7,10.4-10.4,10.4H368.3
			c-5.8,0-10.4-4.7-10.4-10.4v-20.9C357.8,472.9,362.5,468.3,368.3,468.3"/>
		<path class="st81" d="M489.4,486h76.2c0.6,0,1,0.5,1,1v5.2c0,0.6-0.5,1-1,1h-76.2c-0.6,0-1-0.5-1-1V487
			C488.4,486.5,488.8,486,489.4,486"/>
		<path class="st81" d="M371.4,488.9c0-1.6,1.2-3,2.8-3.1l27.1-2.5c1.8-0.2,3.4,1.3,3.4,3.1v6.7c0,1.8-1.6,3.3-3.4,3.1l-27.1-2.5
			c-1.6-0.2-2.8-1.5-2.8-3.1V488.9z"/>
		<path class="st85" d="M582.3,479.7h12.5c1.7,0,3.1,1.4,3.1,3.1v12.5c0,1.7-1.4,3.1-3.1,3.1h-12.5c-1.7,0-3.1-1.4-3.1-3.1v-12.5
			C579.2,481.1,580.6,479.7,582.3,479.7"/>
		<path class="st89" d="M419.4,486c1.7,0,3.1,1.4,3.1,3.1c0,1.7-1.4,3.1-3.1,3.1c-1.7,0-3.1-1.4-3.1-3.1
			C416.3,487.4,417.7,486,419.4,486"/>
		<path class="st81" d="M435.1,486c1.7,0,3.1,1.4,3.1,3.1c0,1.7-1.4,3.1-3.1,3.1c-1.7,0-3.1-1.4-3.1-3.1
			C432,487.4,433.4,486,435.1,486"/>
		<path class="st90" d="M466.4,486c1.7,0,3.1,1.4,3.1,3.1c0,1.7-1.4,3.1-3.1,3.1c-1.7,0-3.1-1.4-3.1-3.1
			C463.3,487.4,464.7,486,466.4,486"/>
		<path class="st81" d="M450.8,486c1.7,0,3.1,1.4,3.1,3.1c0,1.7-1.4,3.1-3.1,3.1c-1.7,0-3.1-1.4-3.1-3.1
			C447.6,487.4,449,486,450.8,486"/>
		<path class="st87" d="M368.3,410.8h231.8c5.8,0,10.4,4.7,10.4,10.4v20.9c0,5.8-4.7,10.4-10.4,10.4H368.3
			c-5.8,0-10.4-4.7-10.4-10.4v-20.9C357.8,415.5,362.5,410.8,368.3,410.8"/>
		<path class="st81" d="M489.4,428.6h76.2c0.6,0,1,0.5,1,1v5.2c0,0.6-0.5,1-1,1h-76.2c-0.6,0-1-0.5-1-1v-5.2
			C488.4,429,488.8,428.6,489.4,428.6"/>
		<path class="st81" d="M371.4,431.4c0-1.6,1.2-3,2.8-3.1l27.1-2.5c1.8-0.2,3.4,1.3,3.4,3.1v6.7c0,1.8-1.6,3.3-3.4,3.1l-27.1-2.5
			c-1.6-0.2-2.8-1.5-2.8-3.1V431.4z"/>
		<path class="st85" d="M582.3,422.3h12.5c1.7,0,3.1,1.4,3.1,3.1V438c0,1.7-1.4,3.1-3.1,3.1h-12.5c-1.7,0-3.1-1.4-3.1-3.1v-12.5
			C579.2,423.7,580.6,422.3,582.3,422.3"/>
		<path class="st88" d="M419.4,428.6c1.7,0,3.1,1.4,3.1,3.1s-1.4,3.1-3.1,3.1c-1.7,0-3.1-1.4-3.1-3.1S417.7,428.6,419.4,428.6"/>
		<path class="st90" d="M435.1,428.6c1.7,0,3.1,1.4,3.1,3.1s-1.4,3.1-3.1,3.1c-1.7,0-3.1-1.4-3.1-3.1S433.4,428.6,435.1,428.6"/>
		<path class="st89" d="M466.4,428.6c1.7,0,3.1,1.4,3.1,3.1s-1.4,3.1-3.1,3.1c-1.7,0-3.1-1.4-3.1-3.1S464.7,428.6,466.4,428.6"/>
		<path class="st90" d="M450.8,428.6c1.7,0,3.1,1.4,3.1,3.1s-1.4,3.1-3.1,3.1c-1.7,0-3.1-1.4-3.1-3.1S449,428.6,450.8,428.6"/>
		<path class="st87" d="M368.3,353.4h231.8c5.8,0,10.4,4.7,10.4,10.4v20.9c0,5.8-4.7,10.4-10.4,10.4H368.3
			c-5.8,0-10.4-4.7-10.4-10.4v-20.9C357.8,358.1,362.5,353.4,368.3,353.4"/>
		<path class="st81" d="M489.4,371.2h76.2c0.6,0,1,0.5,1,1v5.2c0,0.6-0.5,1-1,1h-76.2c-0.6,0-1-0.5-1-1v-5.2
			C488.4,371.6,488.8,371.2,489.4,371.2"/>
		<path class="st81" d="M371.4,374c0-1.6,1.2-3,2.8-3.1l27.1-2.5c1.8-0.2,3.4,1.3,3.4,3.1v6.7c0,1.8-1.6,3.3-3.4,3.1l-27.1-2.5
			c-1.6-0.2-2.8-1.5-2.8-3.1V374z"/>
		<path class="st85" d="M582.3,364.9h12.5c1.7,0,3.1,1.4,3.1,3.1v12.5c0,1.7-1.4,3.1-3.1,3.1h-12.5c-1.7,0-3.1-1.4-3.1-3.1V368
			C579.2,366.3,580.6,364.9,582.3,364.9"/>
		<path class="st90" d="M419.4,371.2c1.7,0,3.1,1.4,3.1,3.1s-1.4,3.1-3.1,3.1c-1.7,0-3.1-1.4-3.1-3.1S417.7,371.2,419.4,371.2"/>
		<path class="st89" d="M435.1,371.2c1.7,0,3.1,1.4,3.1,3.1s-1.4,3.1-3.1,3.1c-1.7,0-3.1-1.4-3.1-3.1S433.4,371.2,435.1,371.2"/>
		<path class="st85" d="M466.4,371.2c1.7,0,3.1,1.4,3.1,3.1s-1.4,3.1-3.1,3.1c-1.7,0-3.1-1.4-3.1-3.1S464.7,371.2,466.4,371.2"/>
		<path class="st81" d="M450.8,371.2c1.7,0,3.1,1.4,3.1,3.1s-1.4,3.1-3.1,3.1c-1.7,0-3.1-1.4-3.1-3.1S449,371.2,450.8,371.2"/>
		<g class="st91">
			<g>
				<defs>
					<rect id="SVGID_107_" x="359.9" y="138.3" width="248.5" height="303.8"/>
				</defs>
				<clipPath id="SVGID_108_">
					<use xlink:href="#SVGID_107_"  style="overflow:visible;"/>
				</clipPath>
				<path class="st94" d="M359.9,159.2v139.4c0,26.1,12.5,68.9,39.7,94c21.7,20,65.4,41.4,84.6,49.6c19.1-8.2,62.9-29.5,84.6-49.6
					c27.1-25.1,39.7-67.9,39.7-94V159.2c0,0-31.1,6.2-53.8,3.1c-27-3.6-57.4-16.9-70.5-24c-13.1,7.1-43.5,20.4-70.5,24
					C391.1,165.4,359.9,159.2,359.9,159.2"/>
			</g>
		</g>
		<path class="st95" d="M359.9,288.2V148.8c0,0,31.1,6.2,53.8,3.1c27-3.6,57.4-16.9,70.5-24v303.8c-19.1-8.2-62.9-29.5-84.6-49.6
			C372.5,357.1,359.9,314.3,359.9,288.2"/>
		<path class="st96" d="M608.4,288.2V148.8c0,0-31.1,6.2-53.8,3.1c-27-3.6-57.4-16.9-70.5-24v303.8c19.1-8.2,62.9-29.5,84.6-49.6
			C595.9,357.1,608.4,314.3,608.4,288.2"/>
		<path class="st97" d="M376.6,287V166.4c0,0,26.9,5.3,46.5,2.7c23.3-3.1,49.7-14.6,61-20.8v263c-16.6-7.1-54.4-25.6-73.2-42.9
			C387.5,346.7,376.6,309.6,376.6,287"/>
		<path class="st98" d="M591.7,287V166.4c0,0-26.9,5.3-46.5,2.7c-23.3-3.1-49.7-14.6-61-20.8v263c16.6-7.1,54.4-25.6,73.2-42.9
			C580.9,346.7,591.7,309.6,591.7,287"/>
		<path class="st99" d="M387.1,286.3V177.4c0,0,24.3,4.8,42,2.4c21.1-2.8,44.9-13.2,55.1-18.8v237.4c-15-6.4-49.1-23.1-66.1-38.8
			C396.9,340.2,387.1,306.7,387.1,286.3"/>
		<path class="st99" d="M581.3,286.3V177.4c0,0-24.3,4.8-42,2.4c-21.1-2.8-44.9-13.2-55.1-18.8v237.4c15-6.4,49.1-23.1,66.1-38.8
			C571.5,340.2,581.3,306.7,581.3,286.3"/>
		<path class="st81" d="M463.3,252.1v14.1h-12v-14.1c0-6.3,0.5-38.6,32.9-38.6c32.4,0,32.4,33.9,32.4,38.6v14.1h-11.5v-14.1
			c0-6.7-4.2-27.1-20.9-27.1C469.6,225,463.3,239,463.3,252.1"/>
		<path class="st86" d="M438.2,265.7h91.9c1.7,0,3.1,1.4,3.1,3.1v59.5c0,1.7-1.4,3.1-3.1,3.1h-91.9c-1.7,0-3.1-1.4-3.1-3.1v-59.5
			C435.1,267.1,436.5,265.7,438.2,265.7"/>
		<path class="st100" d="M484.2,310.1h-6.6c-0.8,0-1.3-0.9-0.9-1.5l3.1-5.7c0.2-0.4,0.1-1-0.2-1.3c-1.2-1.3-2.9-3.8-2.9-6.4
			c0-4.4,2.2-8.5,7.5-8.5c5.3,0,7.4,4.1,7.5,8.5c0,2.6-1.7,5.1-2.9,6.4c-0.3,0.4-0.4,0.9-0.2,1.3l3.1,5.7c0.4,0.7-0.1,1.5-0.9,1.5
			H484.2z"/>
	</g>
</g>
</svg>
